# Blender v2.68 (sub 0) OBJ File: 'bed_frame_1.blend'
# www.blender.org
v -1.500000 0.450000 2.100000
v -1.500000 0.450000 1.700000
v 1.500000 0.450000 1.700000
v 1.500000 0.450000 2.100000
v -1.500000 0.550000 2.100000
v -1.500000 0.550000 1.700000
v 1.500000 0.550000 1.700000
v 1.500000 0.550000 2.100000
v -1.500000 0.450000 1.150000
v -1.500000 0.450000 0.750000
v 1.500000 0.450000 0.750000
v 1.500000 0.450000 1.150000
v -1.500000 0.550000 1.150000
v -1.500000 0.550000 0.750000
v 1.500000 0.550000 0.750000
v 1.500000 0.550000 1.150000
v -1.500000 0.450000 -1.700000
v -1.500000 0.450000 -2.100000
v 1.500000 0.450000 -2.100000
v 1.500000 0.450000 -1.700000
v -1.500000 0.550000 -1.700000
v -1.500000 0.550000 -2.100000
v 1.500000 0.550000 -2.100000
v 1.500000 0.550000 -1.700000
v -1.500000 0.450000 -0.750000
v -1.500000 0.450000 -1.150000
v 1.500000 0.450000 -1.150000
v 1.500000 0.450000 -0.750000
v -1.500000 0.550000 -0.750000
v -1.500000 0.550000 -1.150000
v 1.500000 0.550000 -1.150000
v 1.500000 0.550000 -0.750000
v -1.500000 0.450000 0.200000
v -1.500000 0.450000 -0.200000
v 1.500000 0.450000 -0.200000
v 1.500000 0.450000 0.200000
v -1.500000 0.550000 0.200000
v -1.500000 0.550000 -0.200000
v 1.500000 0.550000 -0.200000
v 1.500000 0.550000 0.200000
v -1.400000 0.000000 -2.600000
v -1.400000 0.000000 -2.400000
v -1.600000 0.000000 -2.400000
v -1.600000 0.000000 -2.600000
v -1.400000 1.322595 -2.600000
v -1.400000 1.322595 -2.400000
v -1.600000 1.322595 -2.400000
v -1.600000 1.322595 -2.600000
v -1.500000 1.124558 2.550000
v -1.500000 1.124558 2.450000
v 1.500000 1.124558 2.450000
v 1.500000 1.124558 2.550000
v -1.500000 2.000000 2.550000
v -1.500000 2.000000 2.450000
v 1.500000 2.000000 2.450000
v 1.500000 2.000000 2.550000
v -0.500000 2.210260 2.450000
v 0.500000 2.210260 2.450000
v 0.500000 2.210260 2.550000
v -0.500000 2.210260 2.550000
v 1.600000 0.000000 2.400000
v 1.600000 0.000000 2.600000
v 1.400000 0.000000 2.600000
v 1.400000 0.000000 2.400000
v 1.600000 2.213181 2.400000
v 1.600000 2.213181 2.600000
v 1.400000 2.213181 2.600000
v 1.400000 2.213181 2.400000
v -1.500000 0.450000 2.550000
v -1.500000 0.450000 2.450000
v 1.500000 0.450000 2.450000
v 1.500000 0.450000 2.550000
v -1.500000 0.750000 2.550000
v -1.500000 0.750000 2.450000
v 1.500000 0.750000 2.450000
v 1.500000 0.750000 2.550000
v -1.500000 0.450000 -2.450000
v -1.500000 0.450000 -2.550000
v 1.500000 0.450000 -2.550000
v 1.500000 0.450000 -2.450000
v -1.500000 0.750000 -2.450000
v -1.500000 0.750000 -2.550000
v 1.500000 0.750000 -2.550000
v 1.500000 0.750000 -2.450000
v -1.550000 0.450000 2.500000
v -1.550000 0.450000 -2.500000
v -1.450000 0.450000 -2.500000
v -1.450000 0.450000 2.500000
v -1.550000 0.750000 2.500000
v -1.550000 0.750000 -2.500000
v -1.450000 0.750000 -2.500000
v -1.450000 0.750000 2.500000
v 1.450000 0.450000 2.500000
v 1.450000 0.450000 -2.500000
v 1.550000 0.450000 -2.500000
v 1.550000 0.450000 2.500000
v 1.450000 0.750000 2.500000
v 1.450000 0.750000 -2.500000
v 1.550000 0.750000 -2.500000
v 1.550000 0.750000 2.500000
v -1.400000 0.000000 2.400000
v -1.400000 0.000000 2.600000
v -1.600000 0.000000 2.600000
v -1.600000 0.000000 2.400000
v -1.400000 2.213181 2.400000
v -1.400000 2.213181 2.600000
v -1.600000 2.213181 2.600000
v -1.600000 2.213181 2.400000
v 1.600000 0.000000 -2.600000
v 1.600000 0.000000 -2.400000
v 1.400000 0.000000 -2.400000
v 1.400000 0.000000 -2.600000
v 1.600000 1.322595 -2.600000
v 1.600000 1.322595 -2.400000
v 1.400000 1.322595 -2.400000
v 1.400000 1.322595 -2.600000
vt 0.504057 0.592251
vt 0.503843 0.522600
vt 0.506378 0.592244
vt 0.962360 0.522387
vt 0.960757 0.000007
vt 0.964682 0.522380
vt 0.496237 0.522600
vt 0.496023 0.592251
vt 0.493915 0.522593
vt 0.993754 0.522387
vt 0.992152 0.000007
vt 0.996076 0.522380
vt 0.142506 0.522380
vt 0.072856 0.522593
vt 0.140904 0.000000
vt 0.429122 0.000000
vt 0.498772 0.000214
vt 0.427519 0.522380
vt 0.498986 0.592251
vt 0.498772 0.522600
vt 0.501308 0.592244
vt 0.988227 0.522380
vt 0.989830 0.000000
vt 0.990549 0.522387
vt 0.430268 0.592251
vt 0.430055 0.522600
vt 0.432590 0.592244
vt 0.997678 0.522387
vt 0.996076 0.000007
vt 1.000000 0.522380
vt 0.570025 0.522380
vt 0.500375 0.522593
vt 0.568423 0.000000
vt 0.000000 0.000214
vt 0.069651 0.000000
vt 0.001603 0.522593
vt 0.427733 0.592251
vt 0.427519 0.522600
vt 0.430055 0.592244
vt 0.974133 0.522387
vt 0.972530 0.000007
vt 0.976455 0.522380
vt 0.071467 0.592251
vt 0.071253 0.522600
vt 0.073789 0.592244
vt 0.981981 0.522387
vt 0.980379 0.000007
vt 0.984303 0.522380
vt 0.354663 0.522593
vt 0.285013 0.522380
vt 0.356266 0.000214
vt 0.213760 0.000214
vt 0.283410 0.000000
vt 0.215362 0.522593
vt 0.501521 0.592251
vt 0.501308 0.522600
vt 0.503843 0.592244
vt 0.970209 0.522387
vt 0.968606 0.000007
vt 0.972530 0.522380
vt 0.567704 0.592251
vt 0.567490 0.522600
vt 0.570026 0.592244
vt 0.978057 0.522387
vt 0.976455 0.000007
vt 0.980379 0.522380
vt 0.425917 0.522593
vt 0.356266 0.522380
vt 0.427519 0.000214
vt 0.571628 0.000000
vt 0.641279 0.000214
vt 0.496451 0.592251
vt 0.498772 0.592244
vt 0.966284 0.522387
vt 0.964682 0.000007
vt 0.968606 0.522380
vt 0.140185 0.592251
vt 0.139971 0.522600
vt 0.142506 0.592244
vt 0.985906 0.522387
vt 0.984303 0.000007
vt 0.710929 0.522593
vt 0.641279 0.522380
vt 0.712532 0.000214
vt 0.144109 0.000000
vt 0.000000 0.000000
vt 1.000000 0.000000
vt 0.000000 1.000000
vt 0.285013 0.557418
vt 0.250188 0.557525
vt 0.284906 0.522593
vt 0.500000 1.000000
vt 0.933013 0.750000
vt 0.066987 0.750000
vt 0.848310 0.522433
vt 0.830897 0.522380
vt 0.849912 0.000053
vt 0.319838 0.522593
vt 0.319945 0.557418
vt 0.285013 0.522700
vt 0.080861 0.540027
vt 0.080807 0.522614
vt 0.087826 0.540006
vt 0.928090 0.522401
vt 0.926487 0.000021
vt 0.935055 0.522380
vt 0.125988 0.540027
vt 0.125934 0.522615
vt 0.132953 0.540006
vt 0.953792 0.522401
vt 0.952190 0.000021
vt 0.960758 0.522380
vt 0.867325 0.522433
vt 0.849912 0.522380
vt 0.868928 0.000053
vt 0.811882 0.000053
vt 0.829295 0.000000
vt 0.813485 0.522433
vt 0.506432 0.540027
vt 0.506378 0.522615
vt 0.513397 0.540006
vt 0.936657 0.522401
vt 0.935055 0.000021
vt 0.943622 0.522380
vt 0.486737 0.540027
vt 0.486683 0.522615
vt 0.493702 0.540006
vt 0.945225 0.522401
vt 0.943622 0.000021
vt 0.952190 0.522380
vt 0.886340 0.522433
vt 0.868928 0.522380
vt 0.887943 0.000053
vt 0.792867 0.000053
vt 0.810279 0.000000
vt 0.794469 0.522433
vt 0.890614 0.870654
vt 0.887943 0.000021
vt 0.897579 0.870633
vt 0.432590 0.540006
vt 0.432643 0.522593
vt 0.439555 0.540027
vt 0.919522 0.870654
vt 0.916851 0.000021
vt 0.926487 0.870633
vt 0.133006 0.540027
vt 0.132953 0.522615
vt 0.139971 0.540006
vt 0.715203 0.870686
vt 0.712532 0.000053
vt 0.732615 0.870632
vt 0.750028 0.000000
vt 0.752699 0.870633
vt 0.732616 0.000054
vt 0.900250 0.870654
vt 0.897579 0.000021
vt 0.907215 0.870633
vt 0.073789 0.540006
vt 0.073842 0.522593
vt 0.080754 0.540027
vt 0.909886 0.870654
vt 0.907215 0.000021
vt 0.916851 0.870633
vt 0.439662 0.540027
vt 0.439608 0.522615
vt 0.446627 0.540006
vt 0.755370 0.870686
vt 0.752699 0.000053
vt 0.772783 0.870632
vt 0.790196 0.000000
vt 0.792867 0.870633
vt 0.772783 0.000054
vt 0.356159 0.522593
vt 0.356266 0.557419
vt 0.321334 0.522700
vt 0.248692 0.522700
vt 0.248585 0.557525
vt 0.213866 0.522593
vt 0.506165 0.522593
vt 0.963079 0.000000
vt 0.493702 0.592244
vt 0.994473 0.000000
vt 0.071253 0.000214
vt 0.497170 0.522593
vt 0.501094 0.522593
vt 0.432376 0.522593
vt 0.998397 0.000000
vt 0.071253 0.522380
vt 0.429841 0.522593
vt 0.974852 0.000000
vt 0.073575 0.522593
vt 0.982701 0.000000
vt 0.286615 0.000000
vt 0.503629 0.522593
vt 0.970928 0.000000
vt 0.569812 0.522593
vt 0.978776 0.000000
vt 0.357869 0.000000
vt 0.639676 0.522593
vt 0.498559 0.522593
vt 0.967004 0.000000
vt 0.142293 0.522593
vt 0.986625 0.000000
vt 0.642881 0.000000
vt 0.212157 0.522593
vt 1.000000 1.000000
vt 0.250081 0.522700
vt 0.933013 0.250000
vt 0.500000 0.000000
vt 0.066987 0.250000
vt 0.832500 0.000000
vt 0.285120 0.557525
vt 0.087772 0.522593
vt 0.933452 0.000000
vt 0.132899 0.522593
vt 0.959155 0.000000
vt 0.851515 0.000000
vt 0.513344 0.522593
vt 0.942020 0.000000
vt 0.493648 0.522593
vt 0.950587 0.000000
vt 0.870530 0.000000
vt 0.811882 0.522380
vt 0.894908 0.000000
vt 0.923816 0.000000
vt 0.139918 0.522593
vt 0.729944 0.000000
vt 0.735287 0.870686
vt 0.904544 0.000000
vt 0.080807 0.522615
vt 0.914180 0.000000
vt 0.446573 0.522593
vt 0.770112 0.000000
vt 0.775454 0.870686
vt 0.321441 0.557525
vt 0.213760 0.557418
vn -1.000000 0.000000 0.000000
vn 0.000000 0.000000 -1.000000
vn 1.000000 -0.000000 0.000000
vn -0.000000 -0.000000 1.000000
vn -0.000000 -1.000000 0.000000
vn 0.000000 1.000000 -0.000000
vn -0.205761 0.978602 0.000000
vn 0.205761 0.978602 -0.000000
vn -0.000001 0.000000 1.000000
vn 1.000000 0.000000 0.000001
vn 0.000001 0.000000 -1.000000
s off
f 5/1/1 6/2/1 1/3/1
f 6/4/2 7/5/2 2/6/2
f 7/7/3 8/8/3 3/9/3
f 8/10/4 5/11/4 4/12/4
f 1/13/5 2/14/5 4/15/5
f 8/16/6 7/17/6 5/18/6
f 13/19/1 14/20/1 9/21/1
f 14/22/2 15/23/2 10/24/2
f 15/25/3 16/26/3 11/27/3
f 16/28/4 13/29/4 12/30/4
f 9/31/5 10/32/5 12/33/5
f 16/34/6 15/35/6 13/36/6
f 21/37/1 22/38/1 17/39/1
f 22/40/2 23/41/2 18/42/2
f 23/43/3 24/44/3 19/45/3
f 24/46/4 21/47/4 20/48/4
f 17/49/5 18/50/5 20/51/5
f 24/52/6 23/53/6 21/54/6
f 29/55/1 30/56/1 25/57/1
f 30/58/2 31/59/2 26/60/2
f 31/61/3 32/62/3 27/63/3
f 32/64/4 29/65/4 28/66/4
f 25/67/5 26/68/5 28/69/5
f 32/70/6 31/71/6 29/31/6
f 37/72/1 38/7/1 33/73/1
f 38/74/2 39/75/2 34/76/2
f 39/77/3 40/78/3 35/79/3
f 40/80/4 37/81/4 36/22/4
f 33/82/5 34/83/5 36/84/5
f 40/85/6 39/52/6 37/13/6
f 41/86/5 42/87/5 44/88/5
f 45/89/6 48/90/6 46/91/6
f 41/86/3 45/87/3 42/88/3
f 42/86/4 46/87/4 43/88/4
f 43/86/1 47/87/1 44/88/1
f 45/86/2 41/87/2 48/88/2
f 53/86/1 54/87/1 49/88/1
f 54/92/2 57/93/2 50/94/2
f 55/86/3 56/87/3 51/88/3
f 56/92/4 59/93/4 52/94/4
f 49/95/5 50/96/5 52/97/5
f 60/86/7 57/87/7 53/88/7
f 56/86/8 55/87/8 59/88/8
f 59/86/6 58/87/6 60/88/6
f 61/86/5 62/87/5 64/88/5
f 65/98/6 68/99/6 66/100/6
f 61/86/3 65/87/3 62/88/3
f 62/86/4 66/87/4 63/88/4
f 63/86/1 67/87/1 64/88/1
f 65/86/2 61/87/2 68/88/2
f 73/101/1 74/102/1 69/103/1
f 74/104/2 75/105/2 70/106/2
f 75/107/3 76/108/3 71/109/3
f 76/110/4 73/111/4 72/112/4
f 69/113/5 70/114/5 72/115/5
f 76/116/6 75/117/6 73/118/6
f 81/119/1 82/120/1 77/121/1
f 82/122/2 83/123/2 78/124/2
f 83/125/3 84/126/3 79/127/3
f 84/128/4 81/129/4 80/130/4
f 77/131/5 78/132/5 80/133/5
f 84/134/6 83/135/6 81/136/6
f 89/137/1 90/138/1 85/139/1
f 90/140/2 91/141/2 86/142/2
f 91/143/3 92/144/3 87/145/3
f 92/146/4 89/147/4 88/148/4
f 85/149/5 86/150/5 88/151/5
f 92/152/6 91/153/6 89/154/6
f 97/155/1 98/156/1 93/157/1
f 98/158/2 99/159/2 94/160/2
f 99/161/3 100/162/3 95/163/3
f 100/164/4 97/165/4 96/166/4
f 93/167/5 94/168/5 96/169/5
f 100/170/6 99/171/6 97/172/6
f 101/86/5 102/87/5 104/88/5
f 105/173/6 108/174/6 106/175/6
f 101/86/3 105/87/3 102/88/3
f 102/86/4 106/87/4 103/88/4
f 103/86/1 107/87/1 104/88/1
f 105/86/2 101/87/2 108/88/2
f 109/86/5 110/87/5 112/88/5
f 113/176/6 116/177/6 114/178/6
f 109/86/3 113/87/3 110/88/3
f 110/86/4 114/87/4 111/88/4
f 111/86/1 115/87/1 112/88/1
f 113/86/2 109/87/2 116/88/2
f 6/2/1 2/179/1 1/3/1
f 7/5/2 3/180/2 2/6/2
f 8/8/3 4/181/3 3/9/3
f 5/11/4 1/182/4 4/12/4
f 2/14/5 3/183/5 4/15/5
f 7/17/6 6/184/6 5/18/6
f 14/20/1 10/185/1 9/21/1
f 15/23/2 11/11/2 10/24/2
f 16/26/3 12/186/3 11/27/3
f 13/29/4 9/187/4 12/30/4
f 10/32/5 11/17/5 12/33/5
f 15/35/6 14/188/6 13/36/6
f 22/38/1 18/189/1 17/39/1
f 23/41/2 19/190/2 18/42/2
f 24/44/3 20/191/3 19/45/3
f 21/47/4 17/192/4 20/48/4
f 18/50/5 19/193/5 20/51/5
f 23/53/6 22/50/6 21/54/6
f 30/56/1 26/194/1 25/57/1
f 31/59/2 27/195/2 26/60/2
f 32/62/3 28/196/3 27/63/3
f 29/65/4 25/197/4 28/66/4
f 26/68/5 27/198/5 28/69/5
f 31/71/6 30/199/6 29/31/6
f 38/7/1 34/200/1 33/73/1
f 39/75/2 35/201/2 34/76/2
f 40/78/3 36/202/3 35/79/3
f 37/81/4 33/203/4 36/22/4
f 34/83/5 35/204/5 36/84/5
f 39/52/6 38/205/6 37/13/6
f 42/87/5 43/206/5 44/88/5
f 48/90/6 47/207/6 46/91/6
f 45/87/3 46/206/3 42/88/3
f 46/87/9 47/206/9 43/88/9
f 47/87/1 48/206/1 44/88/1
f 41/87/2 44/206/2 48/88/2
f 54/87/1 50/206/1 49/88/1
f 58/208/2 55/209/2 51/210/2
f 57/93/2 58/208/2 50/94/2
f 58/208/2 51/210/2 50/94/2
f 56/87/3 52/206/3 51/88/3
f 60/208/4 53/209/4 49/210/4
f 59/93/4 60/208/4 52/94/4
f 60/208/4 49/210/4 52/94/4
f 50/96/5 51/211/5 52/97/5
f 57/87/7 54/206/7 53/88/7
f 55/87/8 58/206/8 59/88/8
f 58/87/6 57/206/6 60/88/6
f 62/87/5 63/206/5 64/88/5
f 68/99/6 67/212/6 66/100/6
f 65/87/10 66/206/10 62/88/10
f 66/87/4 67/206/4 63/88/4
f 67/87/1 68/206/1 64/88/1
f 61/87/2 64/206/2 68/88/2
f 74/102/1 70/213/1 69/103/1
f 75/105/2 71/214/2 70/106/2
f 76/108/3 72/215/3 71/109/3
f 73/111/4 69/216/4 72/112/4
f 70/114/5 71/217/5 72/115/5
f 75/117/6 74/96/6 73/118/6
f 82/120/1 78/218/1 77/121/1
f 83/123/2 79/219/2 78/124/2
f 84/126/3 80/220/3 79/127/3
f 81/129/4 77/221/4 80/130/4
f 78/132/5 79/222/5 80/133/5
f 83/135/6 82/223/6 81/136/6
f 90/138/1 86/224/1 85/139/1
f 91/141/2 87/165/2 86/142/2
f 92/144/3 88/225/3 87/145/3
f 89/147/4 85/226/4 88/148/4
f 86/150/5 87/227/5 88/151/5
f 91/153/6 90/228/6 89/154/6
f 98/156/1 94/229/1 93/157/1
f 99/159/2 95/230/2 94/160/2
f 100/162/3 96/231/3 95/163/3
f 97/165/4 93/232/4 96/166/4
f 94/168/5 95/233/5 96/169/5
f 99/171/6 98/234/6 97/172/6
f 102/87/5 103/206/5 104/88/5
f 108/174/6 107/235/6 106/175/6
f 105/87/3 106/206/3 102/88/3
f 106/87/4 107/206/4 103/88/4
f 107/87/1 108/206/1 104/88/1
f 101/87/2 104/206/2 108/88/2
f 110/87/5 111/206/5 112/88/5
f 116/177/6 115/236/6 114/178/6
f 113/87/10 114/206/10 110/88/10
f 114/87/9 115/206/9 111/88/9
f 115/87/1 116/206/1 112/88/1
f 109/87/11 112/206/11 116/88/11
