# Blender v2.68 (sub 0) OBJ File: 'crate.blend'
# www.blender.org
v -1.000000 -0.000001 1.000000
v 1.000000 0.000001 1.000000
v -1.000000 -0.000001 -1.000000
v 1.000000 0.000001 -1.000000
v -1.000000 -0.000001 0.800882
v -1.000000 -0.000001 -0.800936
v 1.000000 0.000001 -0.800936
v 1.000000 0.000001 0.800882
v -0.841211 -0.000001 0.800882
v 0.820218 0.000001 0.800882
v -0.841211 -0.000001 -0.800936
v 0.820218 0.000001 -0.800936
v 0.600996 0.000001 0.800882
v 0.820218 0.000001 0.580900
v -0.665753 -0.000001 -0.800936
v -0.841211 -0.000001 -0.588861
v -0.841211 0.052533 0.800882
v 0.820218 0.052535 -0.800936
v 0.600996 0.052535 0.800882
v 0.820218 0.052535 0.580900
v -0.665753 0.052534 -0.800936
v -0.841211 0.052533 -0.588861
v 1.000000 2.000000 1.000000
v -1.000000 2.000000 1.000000
v 1.000000 2.000000 -1.000000
v -1.000000 2.000000 -1.000000
v 1.000000 2.000000 0.800882
v 1.000000 2.000000 -0.800936
v -1.000000 2.000000 -0.800936
v -1.000000 2.000000 0.800882
v 0.841211 2.000000 0.800882
v -0.820218 2.000000 0.800882
v 0.841211 2.000000 -0.800936
v -0.820218 2.000000 -0.800936
v -0.600996 2.000000 0.800882
v -0.820218 2.000000 0.580900
v 0.665753 2.000000 -0.800936
v 0.841211 2.000000 -0.588861
v 0.841211 1.947466 0.800882
v -0.820218 1.947466 -0.800936
v -0.600996 1.947466 0.800882
v -0.820218 1.947466 0.580900
v 0.665753 1.947466 -0.800936
v 0.841211 1.947466 -0.588861
v 1.000000 2.000000 1.000000
v 1.000001 2.000000 -1.000000
v 0.999999 -0.000000 1.000000
v 1.000000 -0.000000 -1.000000
v 1.000000 1.800882 1.000000
v 0.999999 0.199064 1.000000
v 1.000000 0.199064 -1.000000
v 1.000001 1.800882 -1.000000
v 1.000000 1.800882 0.841211
v 1.000001 1.800882 -0.820218
v 0.999999 0.199064 0.841211
v 1.000000 0.199064 -0.820218
v 1.000001 1.800882 -0.600996
v 1.000001 1.580900 -0.820218
v 0.999999 0.199064 0.665753
v 0.999999 0.411139 0.841211
v 0.947466 1.800882 0.841211
v 0.947466 0.199064 -0.820218
v 0.947467 1.800882 -0.600996
v 0.947467 1.580900 -0.820218
v 0.947465 0.199064 0.665752
v 0.947465 0.411139 0.841211
v -1.000001 2.000000 -1.000000
v -1.000000 2.000000 1.000000
v -1.000000 -0.000000 -1.000000
v -0.999999 -0.000000 1.000000
v -1.000001 1.800882 -1.000000
v -1.000000 0.199064 -1.000000
v -0.999999 0.199064 1.000000
v -1.000000 1.800882 1.000000
v -1.000001 1.800882 -0.841211
v -1.000000 1.800882 0.820218
v -1.000000 0.199064 -0.841211
v -0.999999 0.199064 0.820218
v -1.000000 1.800882 0.600996
v -1.000000 1.580900 0.820218
v -1.000000 0.199064 -0.665753
v -1.000000 0.411139 -0.841211
v -0.947467 1.800882 -0.841211
v -0.947465 0.199064 0.820218
v -0.947466 1.800882 0.600996
v -0.947465 1.580900 0.820218
v -0.947466 0.199064 -0.665753
v -0.947466 0.411139 -0.841211
v 1.000000 2.000000 -1.000001
v -1.000000 2.000000 -1.000001
v 1.000000 0.000000 -0.999999
v -1.000000 0.000000 -0.999999
v 1.000000 1.800882 -1.000000
v 1.000000 0.199064 -0.999999
v -1.000000 0.199064 -0.999999
v -1.000000 1.800882 -1.000000
v 0.841211 1.800882 -1.000000
v -0.820218 1.800882 -1.000000
v 0.841211 0.199064 -0.999999
v -0.820218 0.199064 -0.999999
v -0.600996 1.800882 -1.000000
v -0.820218 1.580900 -1.000000
v 0.665753 0.199064 -0.999999
v 0.841211 0.411139 -1.000000
v 0.841211 1.800882 -0.947466
v -0.820218 0.199064 -0.947465
v -0.600996 1.800882 -0.947466
v -0.820218 1.580900 -0.947466
v 0.665753 0.199064 -0.947465
v 0.841211 0.411139 -0.947465
v 1.000000 -0.000000 0.999999
v -1.000000 -0.000000 0.999999
v 1.000000 2.000000 1.000001
v -1.000000 2.000000 1.000001
v 1.000000 0.199118 0.999999
v 1.000000 1.800936 1.000000
v -1.000000 1.800936 1.000000
v -1.000000 0.199118 0.999999
v 0.841211 0.199118 0.999999
v -0.820218 0.199118 0.999999
v 0.841211 1.800936 1.000000
v -0.820218 1.800936 1.000000
v -0.600996 0.199118 0.999999
v -0.820218 0.419100 1.000000
v 0.665753 1.800936 1.000000
v 0.841211 1.588861 1.000000
v 0.841211 0.199118 0.947465
v -0.820218 1.800936 0.947466
v -0.600996 0.199118 0.947465
v -0.820218 0.419100 0.947465
v 0.665753 1.800936 0.947466
v 0.841211 1.588861 0.947466
vt 0.024763 0.250244
vt 0.024831 0.272608
vt 0.000000 0.250320
vt 0.224024 0.249632
vt 0.248793 0.249556
vt 0.224092 0.271997
vt 0.051847 0.479203
vt 0.025526 0.499037
vt 0.025466 0.479284
vt 0.196727 0.272081
vt 0.748669 0.171896
vt 0.749196 0.000000
vt 0.755204 0.171916
vt 0.080523 0.499113
vt 0.081053 0.671992
vt 0.073988 0.499133
vt 0.224176 0.299267
vt 0.625082 1.000684
vt 0.625053 0.751537
vt 0.749556 0.880710
vt 0.750994 0.499113
vt 0.750863 0.751537
vt 0.625053 0.616105
vt 0.484909 0.683962
vt 0.485476 0.499113
vt 0.491444 0.683982
vt 0.081053 0.678518
vt 0.081603 0.499113
vt 0.087588 0.678538
vt 0.014771 0.683982
vt 0.014204 0.499133
vt 0.021306 0.683962
vt 0.457101 0.678538
vt 0.456551 0.499133
vt 0.463636 0.678518
vt 0.248869 0.024763
vt 0.226505 0.024831
vt 0.248793 0.000000
vt 0.249480 0.224024
vt 0.249556 0.248793
vt 0.227116 0.224092
vt 0.019910 0.051847
vt 0.000076 0.025526
vt 0.019829 0.025466
vt 0.227032 0.196727
vt 0.060388 0.671028
vt 0.059860 0.499133
vt 0.066923 0.671008
vt 0.049628 0.499133
vt 0.049097 0.672012
vt 0.043092 0.499113
vt 0.199846 0.224176
vt 0.500579 1.000684
vt 0.500550 0.751537
vt 0.625053 0.880710
vt 0.375497 0.499113
vt 0.375366 0.751537
vt 0.249556 0.616106
vt 0.013637 0.683982
vt 0.007669 0.499113
vt 0.477256 0.499113
vt 0.477807 0.678518
vt 0.470721 0.499133
vt 0.123049 0.499113
vt 0.123616 0.683962
vt 0.116514 0.499133
vt 0.042562 0.499133
vt 0.042012 0.678538
vt 0.036027 0.499113
vt 0.499800 0.224794
vt 0.522164 0.224725
vt 0.499876 0.249556
vt 0.499189 0.025533
vt 0.499113 0.000763
vt 0.521553 0.025464
vt 0.728759 0.197710
vt 0.748593 0.224030
vt 0.728840 0.224091
vt 0.521637 0.052829
vt 0.432190 0.671008
vt 0.432718 0.499113
vt 0.438725 0.671028
vt 0.425655 0.672012
vt 0.425125 0.499133
vt 0.432190 0.671992
vt 0.548823 0.025381
vt 0.999971 0.751537
vt 1.000000 1.000684
vt 0.875497 0.871511
vt 0.499113 0.751537
vt 0.499244 0.499113
vt 0.625053 0.634544
vt 0.484342 0.499113
vt 0.477807 0.499133
vt 0.094674 0.499113
vt 0.095224 0.678518
vt 0.088139 0.499133
vt 0.389701 0.499133
vt 0.389134 0.683982
vt 0.383166 0.499113
vt 0.418060 0.499133
vt 0.417509 0.678538
vt 0.411524 0.499113
vt 0.524639 0.249632
vt 0.524570 0.271997
vt 0.723899 0.250244
vt 0.748669 0.250320
vt 0.723831 0.272608
vt 0.550318 0.478754
vt 0.523876 0.498425
vt 0.523936 0.478673
vt 0.696466 0.272524
vt 0.442423 0.671008
vt 0.442951 0.499113
vt 0.448958 0.671028
vt 0.450016 0.672012
vt 0.449486 0.499133
vt 0.456551 0.671992
vt 0.723747 0.299878
vt 0.874639 0.495835
vt 0.874610 0.246688
vt 0.999113 0.375861
vt 0.876935 0.499113
vt 0.876804 0.751537
vt 0.750994 0.616106
vt 0.115947 0.683982
vt 0.109978 0.499113
vt 0.410974 0.499133
vt 0.410424 0.678538
vt 0.404439 0.499113
vt 0.498546 0.499113
vt 0.499113 0.683962
vt 0.492011 0.499133
vt 0.403338 0.499113
vt 0.403889 0.678518
vt 0.396803 0.499133
vt 0.274319 0.250244
vt 0.274388 0.272608
vt 0.249556 0.250320
vt 0.473580 0.249632
vt 0.498349 0.249556
vt 0.473649 0.271997
vt 0.301403 0.479203
vt 0.275082 0.499037
vt 0.275022 0.479284
vt 0.446283 0.272081
vt 0.056690 0.499133
vt 0.056163 0.671028
vt 0.050155 0.499113
vt 0.418590 0.672012
vt 0.425125 0.671992
vt 0.473732 0.299267
vt 0.751023 1.000684
vt 0.750994 0.751537
vt 0.875497 0.880710
vt 0.874478 0.499113
vt 0.748669 0.363681
vt 0.390268 0.683982
vt 0.396803 0.683962
vt 0.021856 0.678538
vt 0.021306 0.499133
vt 0.028392 0.678518
vt 0.376064 0.683982
vt 0.375497 0.499133
vt 0.382599 0.683962
vt 0.028942 0.499113
vt 0.034927 0.678538
vt 0.250244 0.224793
vt 0.272608 0.224725
vt 0.250320 0.249556
vt 0.249632 0.025533
vt 0.249556 0.000763
vt 0.271997 0.025464
vt 0.479203 0.197709
vt 0.499037 0.224030
vt 0.479284 0.224091
vt 0.272081 0.052829
vt 0.762266 0.000000
vt 0.762794 0.171896
vt 0.755731 0.000020
vt 0.066923 0.671992
vt 0.067453 0.499113
vt 0.073458 0.672012
vt 0.299267 0.025381
vt 0.500522 0.751537
vt 0.500550 1.000684
vt 0.376048 0.871511
vt 0.123616 0.751537
vt 0.123747 0.499113
vt 0.249556 0.634544
vt 0.109411 0.499133
vt 0.108844 0.683982
vt 0.102876 0.499113
vt 0.102309 0.499133
vt 0.101759 0.678538
vt 0.095774 0.499113
vt 0.006535 0.499113
vt 0.007102 0.683962
vt 0.000000 0.499133
vt 0.470171 0.499113
vt 0.470721 0.678518
vt 0.463636 0.499133
vt 0.000763 0.499113
vt 0.025399 0.457458
vt 0.249556 0.498350
vt 0.224787 0.498426
vt 0.224726 0.478673
vt 0.074518 0.672012
vt 0.020739 0.499113
vt 0.463086 0.499113
vt 0.000000 0.000763
vt 0.041655 0.025399
vt 0.000763 0.249556
vt 0.000687 0.224787
vt 0.020440 0.224726
vt 0.066395 0.499113
vt 0.042562 0.671992
vt 0.471272 0.678538
vt 0.117081 0.683982
vt 0.035477 0.678518
vt 0.748669 0.248793
vt 0.707014 0.224158
vt 0.747906 0.000000
vt 0.747982 0.024770
vt 0.728229 0.024830
vt 0.439253 0.499133
vt 0.431660 0.499113
vt 0.478374 0.683982
vt 0.088689 0.678538
vt 0.410974 0.678518
vt 0.499113 0.498349
vt 0.524003 0.456846
vt 0.747906 0.499113
vt 0.723136 0.499037
vt 0.723197 0.479284
vt 0.456021 0.499113
vt 0.109411 0.683962
vt 0.492578 0.683982
vt 0.397354 0.678538
vt 0.250320 0.499113
vt 0.274955 0.457458
vt 0.474343 0.498425
vt 0.474283 0.478673
vt 0.049628 0.671008
vt 0.424595 0.499113
vt 0.396236 0.499113
vt 0.027841 0.499113
vt 0.382032 0.499113
vt 0.035477 0.499133
vt 0.499113 0.248793
vt 0.457458 0.224158
vt 0.498349 0.000000
vt 0.498425 0.024770
vt 0.478673 0.024830
vt 0.756259 0.171916
vt 0.102309 0.683962
vt 0.000567 0.683982
vt 0.464186 0.678539
vn 0.000001 -1.000000 0.000000
vn -1.000000 -0.000001 -0.000000
vn 1.000000 0.000001 -0.000000
vn 0.000002 -1.000000 0.000000
vn 0.680982 0.000002 -0.732300
vn 0.000000 -0.000001 -1.000000
vn 0.000000 0.000000 1.000000
vn -0.693888 0.000000 0.720083
vn 0.000000 1.000000 -0.000000
vn 1.000000 -0.000000 0.000000
vn -1.000000 0.000000 0.000000
vn -0.680982 0.000000 -0.732300
vn 0.000000 0.000001 -1.000000
vn 0.693888 0.000000 0.720083
vn 1.000000 -0.000001 0.000001
vn 1.000000 -0.000001 0.000000
vn -0.000001 0.000000 1.000000
vn 0.000000 0.000000 -1.000000
vn 0.000000 -0.732300 -0.680982
vn 0.000000 -1.000000 -0.000000
vn 0.000001 1.000000 0.000000
vn 0.000000 0.720083 0.693888
vn -1.000000 -0.000001 0.000001
vn 0.000001 0.000000 1.000000
vn 0.000002 -0.732300 0.680982
vn -0.000001 1.000000 0.000000
vn -0.000002 0.720083 -0.693888
vn -0.680982 -0.732300 0.000000
vn 0.000000 -1.000000 0.000002
vn 0.000000 1.000000 -0.000001
vn 0.693888 0.720083 0.000000
vn 0.000000 -0.000001 1.000000
vn -0.680982 0.732300 0.000000
vn 0.000000 1.000000 0.000001
vn 0.693888 -0.720083 0.000000
vn 0.000002 -1.000000 -0.000001
vn 0.680982 0.000001 -0.732300
vn 0.693888 -0.000001 0.720083
vn 1.000000 -0.000000 0.000001
vn 0.000001 -0.732300 -0.680982
vn -0.000002 -1.000000 -0.000000
vn -0.000001 0.720083 0.693888
vn -1.000000 -0.000000 0.000001
vn -0.000002 -0.000000 -1.000000
vn 0.000001 -0.732300 0.680982
vn 0.000000 0.720083 -0.693888
vn 0.693888 0.720083 -0.000002
s off
f 7/1/1 12/2/1 4/3/1
f 8/4/1 2/5/1 10/6/1
f 16/7/1 6/8/1 11/9/1
f 8/4/1 10/6/1 14/10/1
f 12/11/2 14/12/2 18/13/2
f 9/14/3 16/15/3 17/16/3
f 14/10/4 10/6/4 13/17/4
f 22/18/1 19/19/1 17/20/1
f 20/21/1 21/22/1 18/23/1
f 14/24/5 15/25/5 20/26/5
f 13/27/6 9/28/6 19/29/6
f 15/30/7 12/31/7 21/32/7
f 16/33/8 13/34/8 22/35/8
f 29/36/9 34/37/9 26/38/9
f 30/39/9 24/40/9 32/41/9
f 38/42/9 28/43/9 33/44/9
f 30/39/9 32/41/9 36/45/9
f 34/46/10 36/47/10 40/48/10
f 31/49/11 38/50/11 39/51/11
f 36/45/9 32/41/9 35/52/9
f 44/53/9 41/54/9 39/55/9
f 42/56/9 43/57/9 40/58/9
f 36/31/12 37/59/12 42/60/12
f 35/61/13 31/62/13 41/63/13
f 37/64/7 34/65/7 43/66/7
f 38/67/14 35/68/14 44/69/14
f 51/70/15 56/71/15 48/72/15
f 52/73/15 46/74/15 54/75/15
f 60/76/16 50/77/16 55/78/16
f 52/73/15 54/75/15 58/79/15
f 56/80/17 58/81/17 62/82/17
f 53/83/18 60/84/18 61/85/18
f 58/79/15 54/75/15 57/86/15
f 66/87/15 63/88/15 61/89/15
f 64/90/15 65/91/15 62/92/15
f 58/93/19 59/24/19 64/94/19
f 57/95/20 53/96/20 63/97/20
f 59/98/21 56/99/21 65/100/21
f 60/101/22 57/102/22 66/103/22
f 73/104/23 78/105/23 70/72/23
f 74/106/23 68/107/23 76/108/23
f 82/109/23 72/110/23 77/111/23
f 74/106/23 76/108/23 80/112/23
f 78/113/18 80/114/18 84/115/18
f 75/116/24 82/117/24 83/118/24
f 80/112/23 76/108/23 79/119/23
f 88/120/23 85/121/23 83/122/23
f 86/123/23 87/124/23 84/125/23
f 80/66/25 81/126/25 86/127/25
f 79/128/20 75/129/20 85/130/20
f 81/131/26 78/132/26 87/133/26
f 82/134/27 79/135/27 88/136/27
f 95/137/6 100/138/6 92/139/6
f 96/140/6 90/141/6 98/142/6
f 104/143/6 94/144/6 99/145/6
f 96/140/6 98/142/6 102/146/6
f 100/147/10 102/148/10 106/149/10
f 97/150/11 104/101/11 105/151/11
f 102/146/6 98/142/6 101/152/6
f 110/153/6 107/154/6 105/155/6
f 108/121/6 109/156/6 106/157/6
f 102/158/28 103/98/28 108/159/28
f 101/160/29 97/161/29 107/162/29
f 103/163/30 100/164/30 109/165/30
f 104/162/31 101/166/31 110/167/31
f 117/168/32 122/169/32 114/170/32
f 118/171/32 112/172/32 120/173/32
f 126/174/32 116/175/32 121/176/32
f 118/171/32 120/173/32 124/177/32
f 122/178/10 124/179/10 128/180/10
f 119/181/11 126/182/11 127/183/11
f 124/177/32 120/173/32 123/184/32
f 132/185/32 129/186/32 127/187/32
f 130/188/32 131/189/32 128/190/32
f 124/191/33 125/192/33 130/193/33
f 123/194/34 119/195/34 129/196/34
f 125/197/20 122/198/20 131/199/20
f 126/200/35 123/201/35 132/202/35
f 3/203/1 11/9/1 6/8/1
f 15/204/1 11/9/1 3/203/1
f 12/2/1 15/204/1 3/203/1
f 4/3/1 12/2/1 3/203/1
f 1/205/4 5/206/4 9/207/4
f 10/6/36 2/5/36 13/17/36
f 2/5/1 1/205/1 9/207/1
f 13/17/1 2/5/1 9/207/1
f 9/207/4 5/206/4 6/8/4
f 16/7/1 9/207/1 6/8/1
f 7/1/1 8/4/1 12/2/1
f 8/4/1 14/10/1 12/2/1
f 14/12/2 20/180/2 18/13/2
f 16/15/3 22/208/3 17/16/3
f 11/9/1 15/204/1 16/7/1
f 15/204/1 14/10/1 13/17/1
f 16/7/1 15/204/1 13/17/1
f 15/25/37 21/133/37 20/26/37
f 9/28/6 17/97/6 19/29/6
f 12/31/7 18/209/7 21/32/7
f 13/34/8 19/210/8 22/35/8
f 25/211/9 33/44/9 28/43/9
f 37/212/9 33/44/9 25/211/9
f 34/37/9 37/212/9 25/211/9
f 26/38/9 34/37/9 25/211/9
f 23/213/9 27/214/9 31/215/9
f 32/41/9 24/40/9 35/52/9
f 24/40/9 23/213/9 31/215/9
f 35/52/9 24/40/9 31/215/9
f 31/215/9 27/214/9 28/43/9
f 38/42/9 31/215/9 28/43/9
f 29/36/9 30/39/9 34/37/9
f 30/39/9 36/45/9 34/37/9
f 36/47/10 42/216/10 40/48/10
f 38/50/11 44/217/11 39/51/11
f 33/44/9 37/212/9 38/42/9
f 37/212/9 36/45/9 35/52/9
f 38/42/9 37/212/9 35/52/9
f 37/59/12 43/198/12 42/60/12
f 31/62/13 39/218/13 41/63/13
f 34/65/7 40/219/7 43/66/7
f 35/68/38 41/220/38 44/69/38
f 47/221/16 55/78/16 50/77/16
f 59/222/39 55/78/39 47/221/39
f 56/71/39 59/222/39 47/221/39
f 48/72/15 56/71/15 47/221/15
f 45/223/15 49/224/15 53/225/15
f 54/75/15 46/74/15 57/86/15
f 46/74/15 45/223/15 53/225/15
f 57/86/39 46/74/39 53/225/39
f 53/225/15 49/224/15 50/77/15
f 60/76/15 53/225/15 50/77/15
f 51/70/15 52/73/15 56/71/15
f 52/73/16 58/79/16 56/71/16
f 58/81/7 64/226/7 62/82/7
f 60/84/18 66/227/18 61/85/18
f 55/78/15 59/222/15 60/76/15
f 59/222/15 58/79/15 57/86/15
f 60/76/15 59/222/15 57/86/15
f 59/24/40 65/228/40 64/94/40
f 53/96/41 61/229/41 63/97/41
f 56/99/21 62/165/21 65/100/21
f 57/102/42 63/230/42 66/103/42
f 69/231/23 77/111/23 72/110/23
f 81/232/11 77/111/11 69/231/11
f 78/105/23 81/232/23 69/231/23
f 70/72/23 78/105/23 69/231/23
f 67/233/23 71/234/23 75/235/23
f 76/108/43 68/107/43 79/119/43
f 68/107/23 67/233/23 75/235/23
f 79/119/23 68/107/23 75/235/23
f 75/235/23 71/234/23 72/110/23
f 82/109/23 75/235/23 72/110/23
f 73/104/23 74/106/23 78/105/23
f 74/106/2 80/112/2 78/105/2
f 80/114/44 86/117/44 84/115/44
f 82/117/24 88/236/24 83/118/24
f 77/111/2 81/232/2 82/109/2
f 81/232/23 80/112/23 79/119/23
f 82/109/11 81/232/11 79/119/11
f 81/126/45 87/237/45 86/127/45
f 75/129/4 83/135/4 85/130/4
f 78/132/26 84/238/26 87/133/26
f 79/135/46 85/239/46 88/136/46
f 91/240/6 99/145/6 94/144/6
f 103/241/6 99/145/6 91/240/6
f 100/138/6 103/241/6 91/240/6
f 92/139/6 100/138/6 91/240/6
f 89/231/6 93/242/6 97/243/6
f 98/142/6 90/141/6 101/152/6
f 90/141/6 89/231/6 97/243/6
f 101/152/6 90/141/6 97/243/6
f 97/243/6 93/242/6 94/144/6
f 104/143/6 97/243/6 94/144/6
f 95/137/6 96/140/6 100/138/6
f 96/140/6 102/146/6 100/138/6
f 102/148/10 108/244/10 106/149/10
f 104/101/11 110/245/11 105/151/11
f 99/145/6 103/241/6 104/143/6
f 103/241/6 102/146/6 101/152/6
f 104/143/6 103/241/6 101/152/6
f 103/98/28 109/246/28 108/159/28
f 97/161/29 105/247/29 107/162/29
f 100/164/30 106/248/30 109/165/30
f 101/166/47 107/249/47 110/167/47
f 113/250/32 121/176/32 116/175/32
f 125/251/32 121/176/32 113/250/32
f 122/169/32 125/251/32 113/250/32
f 114/170/32 122/169/32 113/250/32
f 111/252/32 115/253/32 119/254/32
f 120/173/32 112/172/32 123/184/32
f 112/172/32 111/252/32 119/254/32
f 123/184/32 112/172/32 119/254/32
f 119/254/32 115/253/32 116/175/32
f 126/174/32 119/254/32 116/175/32
f 117/168/32 118/171/32 122/169/32
f 118/171/32 124/177/32 122/169/32
f 124/179/10 130/255/10 128/180/10
f 126/182/11 132/16/11 127/183/11
f 121/176/32 125/251/32 126/174/32
f 125/251/32 124/177/32 123/184/32
f 126/174/32 125/251/32 123/184/32
f 125/192/33 131/256/33 130/193/33
f 119/195/34 127/96/34 129/196/34
f 122/198/20 128/257/20 131/199/20
f 123/201/35 129/258/35 132/202/35
