# Blender v2.68 (sub 0) OBJ File: 'desk_1.blend'
# www.blender.org
v -0.988377 0.534789 1.554827
v -0.988377 0.534789 -1.545173
v -0.888377 0.534789 -1.545173
v -0.888377 0.534789 1.554827
v -0.988377 1.056828 1.554827
v -0.988377 1.056828 -1.545173
v -0.888377 1.056828 -1.545173
v -0.888377 1.056828 1.554827
v 0.338977 0.136585 -1.701308
v -0.596410 0.365284 -1.501307
v 0.339977 -0.012418 1.701495
v 0.339977 -0.012418 1.501495
v 0.338977 0.136585 -1.501307
v -0.596410 0.365284 -1.701308
v 0.339977 0.137212 1.501495
v 0.339977 0.137212 1.701495
v -1.000000 1.528056 -1.700000
v -0.596410 0.365216 1.701495
v 0.573071 1.528056 -1.700000
v 0.573077 1.528056 1.700000
v -1.000000 1.528056 1.700000
v -0.596410 0.365216 1.501495
v 0.679299 1.665990 1.700000
v 0.679293 1.665990 -1.700000
v -0.996410 -0.014008 -1.501307
v -0.996410 -0.014008 -1.701307
v -0.596410 -0.014008 -1.701308
v -0.596410 -0.014008 -1.501307
v -0.996410 1.540070 -1.501307
v -0.996410 1.540070 -1.701307
v -0.596410 1.540070 -1.701308
v -0.596410 1.540070 -1.501307
v -0.996410 -0.012418 1.701495
v -0.996410 -0.012418 1.501495
v -0.596410 -0.012418 1.501495
v -0.596410 -0.012418 1.701495
v -0.996410 1.540070 1.701495
v -0.996410 1.540070 1.501495
v -0.596410 1.540070 1.501495
v -0.596410 1.540070 1.701495
v 0.338977 -0.014008 -1.501307
v 0.338977 -0.014008 -1.701308
v 0.860031 1.733742 -1.700000
v 0.860031 1.733742 1.700000
v -1.000000 1.733742 1.700000
v -1.000000 1.733742 -1.700000
v 0.860026 1.665990 -1.700000
v 0.860037 1.665990 1.700001
v -1.000000 1.665990 1.700000
v -1.000000 1.665990 -1.700000
vt 0.455179 0.830705
vt 0.452632 0.000309
vt 0.555868 0.830396
vt 0.452632 0.000310
vt 0.450084 0.830706
vt 0.351655 0.000000
vt 0.947258 0.000338
vt 0.944711 0.830735
vt 0.937182 0.000307
vt 0.957181 0.000307
vt 0.959729 0.830703
vt 0.690514 0.829272
vt 0.636940 0.829436
vt 0.689817 0.602024
vt 0.972834 0.375312
vt 0.999514 0.375394
vt 0.973353 0.206102
vt 0.784732 0.227679
vt 0.784956 0.300723
vt 0.690603 0.301012
vt 0.378215 0.830795
vt 0.378050 0.884369
vt 0.349272 0.830706
vt 0.973353 0.169599
vt 1.000000 0.158814
vt 0.999514 0.000307
vt 0.918773 0.911065
vt 0.915980 0.000307
vt 0.900838 0.911120
vt 0.349108 0.910757
vt 0.346314 0.000000
vt 0.193009 0.911236
vt 0.870634 0.911149
vt 0.898045 0.911065
vt 0.867840 0.000392
vt 0.825261 0.901462
vt 0.771687 0.901626
vt 0.824341 0.601717
vt 0.690514 0.000413
vt 0.649984 0.073654
vt 0.650209 0.000289
vt 0.690206 0.930102
vt 0.636632 0.929938
vt 0.690514 0.829600
vt 0.649984 0.528370
vt 0.690514 0.601611
vt 0.650209 0.601735
vt 0.745007 0.901155
vt 0.691433 0.901320
vt 0.744088 0.601717
vt 0.825261 0.301425
vt 0.784732 0.374346
vt 0.784956 0.301302
vt 0.555579 0.925222
vt 0.502005 0.925058
vt 0.555868 0.830869
vt 0.825261 0.300599
vt 0.555958 0.000000
vt 0.452796 0.884368
vt 0.452632 0.830795
vt 0.481925 0.884279
vt 0.610139 0.829258
vt 0.556565 0.829423
vt 0.609442 0.602024
vt 0.555868 0.829587
vt 0.609442 0.829423
vt 0.556177 0.930165
vt 0.000000 0.910757
vt 0.187421 0.911332
vt 0.002794 0.000000
vt 0.841160 0.911146
vt 0.867840 0.911064
vt 0.838366 0.000389
vt 0.918772 0.000347
vt 0.921567 0.911105
vt 0.934634 0.911065
vt 0.973409 0.187890
vt 0.960304 0.187851
vt 0.825261 0.000429
vt 0.828055 0.911187
vt 0.973409 0.187810
vt 0.555958 0.602024
vt 0.452632 0.924958
vt 0.399057 0.925122
vt 0.452342 0.830706
vt 0.553321 0.000000
vt 0.349108 0.830396
vt 0.934634 0.830704
vt 0.949806 0.830734
vt 0.636243 0.602189
vt 1.000000 0.216887
vt 0.690514 0.272070
vt 0.349108 0.884280
vt 0.972834 0.000389
vt 0.898045 0.000363
vt 0.190215 0.000479
vt 0.895251 0.000307
vt 0.770767 0.601881
vt 0.689592 0.301012
vt 0.649287 0.300888
vt 0.649287 0.301136
vt 0.690514 0.601881
vt 0.824340 0.601717
vt 0.784035 0.601593
vt 0.502294 0.830705
vt 0.784035 0.000431
vt 0.824340 0.000307
vt 0.555868 0.029129
vt 0.481760 0.830705
vt 0.555868 0.602189
vt 0.609751 0.930000
vt 0.690514 0.329955
vt 0.190215 0.000575
vt 0.865046 0.000307
vt 0.931840 0.000307
vt 0.959729 0.375272
vt 0.959729 0.000430
vt 0.555868 0.572896
vt 0.398768 0.830870
vn -1.000000 0.000000 0.000000
vn 1.000000 -0.000000 0.000000
vn -0.000001 -1.000000 0.000000
vn -0.000000 1.000000 0.000000
vn -0.000000 0.000000 1.000000
vn 0.000000 0.000000 -1.000000
vn 0.000000 -1.000000 -0.000000
vn 0.792292 -0.610142 -0.000001
vn -0.000001 0.000000 -1.000000
vn 0.237501 0.971387 0.000000
vn 0.000001 0.000000 1.000000
vn 0.236580 0.971612 0.000000
vn 1.000000 0.000097 0.000000
vn -0.000003 0.000016 1.000000
vn -1.000000 0.000004 -0.000000
vn 0.000000 -0.000012 -1.000000
vn 1.000000 -0.000071 -0.000003
vn 0.000000 -0.000005 1.000000
vn -0.000000 0.000008 1.000000
s off
f 5/1/1 6/2/1 1/3/1
f 7/4/2 8/5/2 3/6/2
f 1/7/3 2/8/3 4/9/3
f 8/10/4 7/11/4 5/7/4
f 39/12/2 40/13/2 22/14/2
f 49/15/5 21/16/5 23/17/5
f 18/18/5 36/19/5 11/20/5
f 15/21/2 16/22/2 12/23/2
f 24/24/6 19/25/6 17/26/6
f 47/27/7 48/28/7 24/29/7
f 19/30/7 20/31/7 17/32/7
f 23/33/8 20/34/8 24/35/8
f 29/36/1 30/37/1 25/38/1
f 26/39/9 14/40/9 27/41/9
f 14/42/10 10/43/10 9/44/10
f 10/45/5 25/46/5 28/47/5
f 37/48/1 38/49/1 33/50/1
f 34/51/6 22/52/6 35/53/6
f 36/54/7 35/55/7 11/56/7
f 18/18/11 33/57/11 36/19/11
f 27/41/6 14/40/6 42/58/6
f 9/59/2 13/60/2 42/61/2
f 31/62/2 32/63/2 14/64/2
f 22/65/12 18/66/12 15/67/12
f 35/53/6 22/52/6 12/20/6
f 43/68/4 46/69/4 44/70/4
f 50/71/1 17/72/1 49/73/1
f 43/74/13 44/75/13 48/76/13
f 48/77/14 44/78/14 23/17/14
f 45/79/15 46/80/15 49/73/15
f 47/81/16 24/24/16 43/78/16
f 10/45/5 28/47/5 41/82/5
f 28/83/7 27/84/7 41/85/7
f 6/2/1 2/86/1 1/3/1
f 8/5/2 4/87/2 3/6/2
f 2/8/3 3/88/3 4/9/3
f 7/11/4 6/89/4 5/7/4
f 40/13/2 18/90/2 22/14/2
f 21/16/5 20/91/5 23/17/5
f 16/92/5 18/18/5 11/20/5
f 16/22/2 11/93/2 12/23/2
f 50/94/6 24/24/6 17/26/6
f 48/28/7 23/95/7 24/29/7
f 20/31/7 21/96/7 17/32/7
f 20/34/8 19/97/8 24/35/8
f 30/37/1 26/98/1 25/38/1
f 30/99/9 31/100/9 26/39/9
f 31/100/9 14/40/9 26/39/9
f 10/43/10 13/13/10 9/44/10
f 32/101/5 29/99/5 25/46/5
f 10/45/5 32/101/5 25/46/5
f 38/49/1 34/102/1 33/50/1
f 38/103/6 39/104/6 34/51/6
f 39/104/6 22/52/6 34/51/6
f 35/55/7 12/105/7 11/56/7
f 40/106/11 37/107/11 33/57/11
f 18/18/11 40/106/11 33/57/11
f 14/40/6 9/108/6 42/58/6
f 13/60/2 41/109/2 42/61/2
f 32/63/2 10/110/2 14/64/2
f 18/66/12 16/111/12 15/67/12
f 22/52/6 15/112/6 12/20/6
f 46/69/4 45/113/4 44/70/4
f 17/72/1 21/114/1 49/73/1
f 47/115/17 43/74/17 48/76/17
f 44/78/18 45/116/18 49/15/18
f 23/17/19 44/78/19 49/15/19
f 46/80/15 50/71/15 49/73/15
f 24/24/16 50/94/16 43/78/16
f 50/94/16 46/117/16 43/78/16
f 13/118/5 10/45/5 41/82/5
f 27/84/7 42/119/7 41/85/7
