# Blender v2.68 (sub 0) OBJ File: 'sphere.blend'
# www.blender.org
v -0.262003 0.939693 -0.219846
v -0.492404 0.766044 -0.413176
v -0.663414 0.500000 -0.556670
v -0.754407 0.173648 -0.633022
v -0.754407 -0.173648 -0.633022
v -0.663414 -0.500000 -0.556670
v -0.492404 -0.766044 -0.413176
v -0.262003 -0.939693 -0.219846
v -0.059391 0.939693 -0.336824
v -0.111619 0.766044 -0.633022
v -0.150384 0.500000 -0.852868
v -0.171010 0.173648 -0.969846
v -0.171010 -0.173648 -0.969846
v -0.150384 -0.500000 -0.852868
v -0.111619 -0.766044 -0.633022
v -0.059391 -0.939693 -0.336824
v 0.171010 0.939693 -0.296198
v 0.321393 0.766044 -0.556670
v 0.433012 0.500000 -0.750000
v 0.492404 0.173648 -0.852869
v 0.492404 -0.173648 -0.852868
v 0.433012 -0.500000 -0.750000
v 0.321393 -0.766044 -0.556670
v 0.171010 -0.939693 -0.296198
v -0.000000 1.000000 0.000000
v 0.321394 0.939693 -0.116978
v 0.604022 0.766044 -0.219846
v 0.813797 0.500000 -0.296198
v 0.925416 0.173648 -0.336824
v 0.925416 -0.173648 -0.336824
v 0.813797 -0.500000 -0.296198
v 0.604022 -0.766044 -0.219846
v 0.321394 -0.939693 -0.116978
v 0.321394 0.939693 0.116978
v 0.604023 0.766044 0.219846
v 0.813798 0.500000 0.296198
v 0.925416 0.173648 0.336824
v 0.925416 -0.173648 0.336824
v 0.813797 -0.500000 0.296198
v 0.604023 -0.766044 0.219846
v 0.321394 -0.939693 0.116978
v 0.171010 0.939693 0.296198
v 0.321394 0.766044 0.556670
v 0.433013 0.500000 0.750000
v 0.492404 0.173648 0.852868
v 0.492404 -0.173648 0.852868
v 0.433013 -0.500000 0.750000
v 0.321394 -0.766044 0.556670
v 0.171010 -0.939693 0.296198
v -0.000000 -1.000000 0.000000
v -0.059391 0.939693 0.336824
v -0.111619 0.766044 0.633022
v -0.150384 0.500000 0.852869
v -0.171010 0.173648 0.969846
v -0.171010 -0.173648 0.969846
v -0.150384 -0.500000 0.852868
v -0.111619 -0.766044 0.633022
v -0.059391 -0.939693 0.336824
v -0.262003 0.939693 0.219846
v -0.492404 0.766044 0.413176
v -0.663414 0.500000 0.556671
v -0.754406 0.173648 0.633023
v -0.754406 -0.173648 0.633023
v -0.663414 -0.500000 0.556671
v -0.492404 -0.766044 0.413176
v -0.262003 -0.939693 0.219846
v -0.342020 0.939693 0.000000
v -0.642788 0.766044 0.000000
v -0.866026 0.500000 0.000000
v -0.984808 0.173648 0.000001
v -0.984808 -0.173648 0.000000
v -0.866026 -0.500000 0.000000
v -0.642788 -0.766044 0.000000
v -0.342020 -0.939693 0.000000
vt 0.507794 0.406873
vt 0.429922 0.382590
vt 0.507417 0.283857
vt 0.590584 0.406619
vt 0.590206 0.283603
vt 0.668305 0.381858
vt 0.667973 0.273679
vt 0.731584 0.335577
vt 0.731338 0.255284
vt 0.404244 0.657235
vt 0.456955 0.605228
vt 0.496358 0.706653
vt 0.176063 0.483584
vt 0.136629 0.424517
vt 0.230761 0.474196
vt 0.365872 0.699496
vt 0.489977 0.766077
vt 0.667540 0.132462
vt 0.731016 0.150469
vt 0.505967 0.631523
vt 0.599032 0.685575
vt 0.239427 0.406873
vt 0.278917 0.502244
vt 0.429590 0.274411
vt 0.366114 0.256404
vt 0.429157 0.133193
vt 0.506924 0.123270
vt 0.589714 0.123016
vt 0.628310 0.737677
vt 0.716143 0.627586
vt 0.506547 0.000254
vt 0.589336 0.000000
vt 0.667208 0.024283
vt 0.730770 0.070175
vt 0.560599 0.620307
vt 0.664225 0.603862
vt 0.329931 0.459586
vt 0.297998 0.554604
vt 1.000000 0.548875
vt 0.999746 0.631664
vt 0.876984 0.548497
vt 0.975717 0.471003
vt 0.867538 0.470671
vt 0.929825 0.407441
vt 0.849531 0.407195
vt 0.595288 0.576829
vt 0.661431 0.499749
vt 0.365792 0.557991
vt 0.279077 0.606777
vt 0.712380 0.487315
vt 0.974985 0.709386
vt 0.876730 0.631287
vt 0.593801 0.521432
vt 0.591959 0.421952
vt 0.330231 0.656043
vt 0.231006 0.634349
vt 0.866807 0.709054
vt 0.848411 0.772419
vt 0.725589 0.708621
vt 0.716143 0.630794
vt 0.716397 0.548005
vt 0.726321 0.470238
vt 0.744716 0.406873
vt 0.141001 0.406619
vt 0.063279 0.381858
vt 0.141378 0.283603
vt 0.223790 0.406873
vt 0.224168 0.283857
vt 0.301662 0.382590
vt 0.301994 0.274411
vt 0.239887 0.707863
vt 0.243614 0.764823
vt 0.137034 0.689203
vt 0.556836 0.480037
vt 0.488314 0.406873
vt 0.176279 0.624420
vt 0.000000 0.335577
vt 0.063611 0.273679
vt 0.365471 0.256404
vt 0.365792 0.151589
vt 0.501687 0.472013
vt 0.398994 0.461567
vt 0.140502 0.581636
vt 0.000246 0.255284
vt 0.064044 0.132462
vt 0.141871 0.123016
vt 0.224660 0.123270
vt 0.302427 0.133194
vt 0.000568 0.150469
vt 0.064376 0.024283
vt 0.142248 0.000000
vt 0.225038 0.000254
vt 0.302759 0.025015
vt 0.069796 0.608794
vt 0.014451 0.631349
vt 0.069637 0.504262
vt 0.454161 0.501116
vt 0.365792 0.560443
vt 0.140417 0.526015
vt 0.882979 0.343075
vt 0.864972 0.406551
vt 0.741762 0.343508
vt 0.218040 0.553149
vt 0.892425 0.265249
vt 0.731838 0.265741
vt 0.892171 0.182459
vt 0.731584 0.182952
vt 0.882248 0.104692
vt 0.741030 0.105125
vt 0.436495 0.553726
vt 0.517646 0.549748
vt 0.863852 0.041327
vt 0.759037 0.041649
vt 0.428825 0.025015
vt 0.743596 0.772097
vt 0.105039 0.739682
vt 0.000814 0.070175
vt 0.014235 0.490512
vt 0.760157 0.406873
vn -0.473094 0.323615 -0.819423
vn -0.500000 -0.000000 -0.866025
vn -0.473094 -0.323616 -0.819423
vn -0.392628 -0.619171 -0.680052
vn -0.261746 0.852031 -0.453356
vn -0.261746 -0.852031 -0.453356
vn -0.392628 0.619171 -0.680052
vn 0.164304 -0.323616 -0.931814
vn 0.136358 -0.619171 -0.773326
vn 0.090903 0.852031 -0.515538
vn 0.090903 -0.852031 -0.515538
vn 0.136358 0.619171 -0.773326
vn 0.164304 0.323615 -0.931814
vn 0.173648 -0.000000 -0.984808
vn 0.601541 0.619171 -0.504753
vn 0.724822 0.323615 -0.608199
vn 0.766044 -0.000000 -0.642788
vn 0.724822 -0.323616 -0.608198
vn 0.601541 -0.619171 -0.504753
vn 0.401017 0.852031 -0.336494
vn 0.401017 -0.852031 -0.336494
vn 1.000000 -0.000000 -0.000000
vn 0.946189 -0.323616 -0.000000
vn 0.785256 -0.619171 -0.000000
vn 0.523491 0.852031 -0.000000
vn 0.523491 -0.852031 -0.000000
vn 0.785256 0.619171 -0.000000
vn 0.946189 0.323616 -0.000000
vn 0.401017 0.852031 0.336493
vn 0.401017 -0.852031 0.336493
vn 0.601541 0.619171 0.504753
vn 0.724823 0.323615 0.608198
vn 0.766045 -0.000000 0.642787
vn 0.724823 -0.323616 0.608198
vn 0.601541 -0.619171 0.504753
vn 0.164304 0.323616 0.931814
vn 0.173649 -0.000000 0.984808
vn 0.164304 -0.323616 0.931814
vn 0.136359 -0.619171 0.773326
vn 0.090903 0.852031 0.515538
vn 0.090903 -0.852031 0.515538
vn 0.136359 0.619171 0.773326
vn -0.392628 -0.619171 0.680052
vn -0.261745 0.852031 0.453357
vn -0.261745 -0.852031 0.453357
vn -0.392628 0.619171 0.680052
vn -0.473094 0.323615 0.819424
vn -0.500000 0.000000 0.866026
vn -0.473094 -0.323616 0.819424
vn -0.737899 0.619171 0.268574
vn -0.889126 0.323615 0.323616
vn -0.939692 0.000000 0.342021
vn -0.889126 -0.323616 0.323616
vn -0.737899 -0.619171 0.268574
vn -0.491920 0.852031 0.179045
vn -0.491921 -0.852031 0.179045
vn -0.491921 -0.852031 -0.179044
vn -0.737899 0.619171 -0.268573
vn -0.173302 -0.982847 -0.063077
vn -0.889127 0.323615 -0.323615
vn -0.939693 0.000000 -0.342020
vn -0.889126 -0.323616 -0.323616
vn -0.173303 0.982847 -0.063077
vn -0.737899 -0.619171 -0.268573
vn -0.491921 0.852031 -0.179044
vn -0.092212 0.982847 -0.159716
vn -0.092212 -0.982847 -0.159716
vn 0.032025 0.982847 -0.181623
vn 0.032025 -0.982847 -0.181623
vn 0.141277 -0.982847 -0.118546
vn 0.141277 0.982847 -0.118546
vn 0.184425 0.982847 -0.000000
vn 0.184425 -0.982847 -0.000000
vn 0.141277 -0.982847 0.118546
vn 0.141277 0.982847 0.118546
vn 0.032025 0.982847 0.181623
vn 0.032025 -0.982847 0.181623
vn -0.092212 0.982847 0.159717
vn -0.092212 -0.982847 0.159716
vn -0.173302 -0.982847 0.063077
vn -0.173302 0.982847 0.063077
vn -0.473094 0.323616 -0.819423
vn 0.164304 0.323616 -0.931814
vn 0.724822 0.323616 -0.608198
vn 0.401018 -0.852031 0.336493
vn 0.724823 0.323616 0.608198
vn -0.473094 0.323616 0.819424
vn -0.889126 0.323616 0.323616
vn -0.491920 -0.852031 0.179045
s off
f 4/1/1 3/2/1 12/3/1
f 5/4/2 4/1/2 13/5/2
f 6/6/3 5/4/3 14/7/3
f 7/8/4 6/6/4 15/9/4
f 2/10/5 1/11/5 10/12/5
f 8/13/6 7/14/6 16/15/6
f 3/16/7 2/10/7 11/17/7
f 14/7/8 13/5/8 22/18/8
f 15/9/9 14/7/9 23/19/9
f 10/12/10 9/20/10 18/21/10
f 16/15/11 15/22/11 24/23/11
f 11/24/12 10/25/12 19/26/12
f 12/3/13 11/24/13 20/27/13
f 13/5/14 12/3/14 21/28/14
f 19/29/15 18/21/15 28/30/15
f 20/27/16 19/26/16 29/31/16
f 21/28/17 20/27/17 30/32/17
f 22/18/18 21/28/18 31/33/18
f 23/19/19 22/18/19 32/34/19
f 18/21/20 17/35/20 27/36/20
f 24/23/21 23/37/21 33/38/21
f 30/39/22 29/40/22 38/41/22
f 31/42/23 30/39/23 39/43/23
f 32/44/24 31/42/24 40/45/24
f 27/36/25 26/46/25 35/47/25
f 33/38/26 32/48/26 41/49/26
f 28/30/27 27/36/27 36/50/27
f 29/40/28 28/51/28 37/52/28
f 35/47/29 34/53/29 43/54/29
f 41/49/30 40/55/30 49/56/30
f 36/57/31 35/58/31 44/59/31
f 37/52/32 36/57/32 45/60/32
f 38/41/33 37/52/33 46/61/33
f 39/43/34 38/41/34 47/62/34
f 40/45/35 39/43/35 48/63/35
f 45/64/36 44/65/36 54/66/36
f 46/67/37 45/64/37 55/68/37
f 47/69/38 46/67/38 56/70/38
f 48/71/39 47/72/39 57/73/39
f 43/54/40 42/74/40 52/75/40
f 49/56/41 48/71/41 58/76/41
f 44/65/42 43/77/42 53/78/42
f 57/79/43 56/70/43 65/80/43
f 52/75/44 51/81/44 60/82/44
f 58/76/45 57/73/45 66/83/45
f 53/78/46 52/84/46 61/85/46
f 54/66/47 53/78/47 62/86/47
f 55/68/48 54/66/48 63/87/48
f 56/70/49 55/68/49 64/88/49
f 61/85/50 60/89/50 69/90/50
f 62/86/51 61/85/51 70/91/51
f 63/87/52 62/86/52 71/92/52
f 64/88/53 63/87/53 72/93/53
f 65/94/54 64/95/54 73/96/54
f 60/82/55 59/97/55 68/98/55
f 66/83/56 65/94/56 74/99/56
f 74/99/57 73/96/57 8/13/57
f 69/100/58 68/101/58 3/102/58
f 50/103/59 74/99/59 8/13/59
f 70/104/60 69/100/60 4/105/60
f 71/106/61 70/104/61 5/107/61
f 72/108/62 71/106/62 6/109/62
f 67/110/63 25/111/63 1/11/63
f 73/112/64 72/108/64 7/113/64
f 68/98/65 67/110/65 2/10/65
f 1/11/66 25/111/66 9/20/66
f 50/103/67 8/13/67 16/15/67
f 9/20/68 25/111/68 17/35/68
f 50/103/69 16/15/69 24/23/69
f 50/103/70 24/23/70 33/38/70
f 17/35/71 25/111/71 26/46/71
f 26/46/72 25/111/72 34/53/72
f 50/103/73 33/38/73 41/49/73
f 50/103/74 41/49/74 49/56/74
f 34/53/75 25/111/75 42/74/75
f 42/74/76 25/111/76 51/81/76
f 50/103/77 49/56/77 58/76/77
f 51/81/78 25/111/78 59/97/78
f 50/103/79 58/76/79 66/83/79
f 50/103/80 66/83/80 74/99/80
f 59/97/81 25/111/81 67/110/81
f 3/2/82 11/24/82 12/3/82
f 4/1/2 12/3/2 13/5/2
f 5/4/3 13/5/3 14/7/3
f 6/6/4 14/7/4 15/9/4
f 1/11/5 9/20/5 10/12/5
f 7/14/6 15/22/6 16/15/6
f 2/10/7 10/12/7 11/17/7
f 13/5/8 21/28/8 22/18/8
f 14/7/9 22/18/9 23/19/9
f 9/20/10 17/35/10 18/21/10
f 15/22/11 23/37/11 24/23/11
f 10/25/12 18/80/12 19/26/12
f 11/24/83 19/26/83 20/27/83
f 12/3/14 20/27/14 21/28/14
f 18/21/15 27/36/15 28/30/15
f 19/26/84 28/114/84 29/31/84
f 20/27/17 29/31/17 30/32/17
f 21/28/18 30/32/18 31/33/18
f 22/18/19 31/33/19 32/34/19
f 17/35/20 26/46/20 27/36/20
f 23/37/21 32/48/21 33/38/21
f 29/40/22 37/52/22 38/41/22
f 30/39/23 38/41/23 39/43/23
f 31/42/24 39/43/24 40/45/24
f 26/46/25 34/53/25 35/47/25
f 32/48/26 40/55/26 41/49/26
f 27/36/27 35/47/27 36/50/27
f 28/51/28 36/57/28 37/52/28
f 34/53/29 42/74/29 43/54/29
f 40/55/85 48/71/85 49/56/85
f 35/58/31 43/115/31 44/59/31
f 36/57/86 44/59/86 45/60/86
f 37/52/33 45/60/33 46/61/33
f 38/41/34 46/61/34 47/62/34
f 39/43/35 47/62/35 48/63/35
f 44/65/36 53/78/36 54/66/36
f 45/64/37 54/66/37 55/68/37
f 46/67/38 55/68/38 56/70/38
f 47/72/39 56/116/39 57/73/39
f 42/74/40 51/81/40 52/75/40
f 48/71/41 57/73/41 58/76/41
f 43/77/42 52/84/42 53/78/42
f 56/70/43 64/88/43 65/80/43
f 51/81/44 59/97/44 60/82/44
f 57/73/45 65/94/45 66/83/45
f 52/84/46 60/89/46 61/85/46
f 53/78/87 61/85/87 62/86/87
f 54/66/48 62/86/48 63/87/48
f 55/68/49 63/87/49 64/88/49
f 60/89/50 68/117/50 69/90/50
f 61/85/88 69/90/88 70/91/88
f 62/86/52 70/91/52 71/92/52
f 63/87/53 71/92/53 72/93/53
f 64/95/54 72/118/54 73/96/54
f 59/97/55 67/110/55 68/98/55
f 65/94/89 73/96/89 74/99/89
f 73/96/57 7/14/57 8/13/57
f 68/101/58 2/119/58 3/102/58
f 69/100/60 3/102/60 4/105/60
f 70/104/61 4/105/61 5/107/61
f 71/106/62 5/107/62 6/109/62
f 72/108/64 6/109/64 7/113/64
f 67/110/65 1/11/65 2/10/65
