# Blender v2.68 (sub 0) OBJ File: ''
# www.blender.org
v -0.309017 0.951057 0.000000
v -0.587785 0.809017 0.000000
v -0.809017 0.587785 0.000000
v -0.951057 0.309017 0.000000
v -1.000000 -0.000000 0.000000
v -0.951056 -0.309017 0.000000
v -0.809017 -0.587785 0.000000
v -0.587785 -0.809017 0.000000
v -0.309017 -0.951057 0.000000
v -0.282301 0.951056 -0.125689
v -0.536968 0.809017 -0.239074
v -0.739074 0.587785 -0.329057
v -0.868833 0.309017 -0.386830
v -0.913545 -0.000000 -0.406737
v -0.868833 -0.309017 -0.386830
v -0.739074 -0.587785 -0.329057
v -0.536968 -0.809017 -0.239074
v -0.282301 -0.951057 -0.125689
v -0.206773 0.951056 -0.229645
v -0.393305 0.809017 -0.436810
v -0.541338 0.587785 -0.601217
v -0.636381 0.309017 -0.706773
v -0.669130 -0.000000 -0.743145
v -0.636381 -0.309017 -0.706773
v -0.541338 -0.587785 -0.601217
v -0.393305 -0.809017 -0.436810
v -0.206772 -0.951057 -0.229644
v -0.095491 0.951056 -0.293893
v -0.181635 0.809017 -0.559017
v -0.250000 0.587785 -0.769421
v -0.293892 0.309017 -0.904509
v -0.309017 -0.000000 -0.951057
v -0.293892 -0.309017 -0.904509
v -0.250000 -0.587785 -0.769421
v -0.181635 -0.809017 -0.559017
v -0.095491 -0.951057 -0.293893
v 0.032301 0.951056 -0.307324
v 0.061441 0.809017 -0.584566
v 0.084566 0.587785 -0.804585
v 0.099413 0.309017 -0.945847
v 0.104529 -0.000000 -0.994522
v 0.099413 -0.309017 -0.945847
v 0.084566 -0.587785 -0.804585
v 0.061441 -0.809017 -0.584566
v 0.032301 -0.951057 -0.307324
v 0.154509 0.951056 -0.267617
v 0.293893 0.809017 -0.509037
v 0.404509 0.587785 -0.700629
v 0.475529 0.309017 -0.823639
v 0.500001 -0.000000 -0.866026
v 0.475529 -0.309017 -0.823639
v 0.404509 -0.587785 -0.700629
v 0.293893 -0.809017 -0.509037
v 0.154509 -0.951057 -0.267617
v 0.250001 0.951056 -0.181636
v 0.475529 0.809017 -0.345491
v 0.654509 0.587785 -0.475528
v 0.769422 0.309017 -0.559017
v 0.809018 -0.000000 -0.587785
v 0.769422 -0.309017 -0.559017
v 0.654509 -0.587785 -0.475528
v 0.475529 -0.809017 -0.345491
v 0.250000 -0.951057 -0.181636
v 0.302265 0.951056 -0.064248
v 0.574941 0.809017 -0.122207
v 0.791339 0.587785 -0.168204
v 0.930274 0.309017 -0.197736
v 0.978148 -0.000000 -0.207911
v 0.930274 -0.309017 -0.197736
v 0.791339 -0.587785 -0.168204
v 0.574941 -0.809017 -0.122207
v 0.302265 -0.951057 -0.064248
v 0.302265 0.951056 0.064248
v 0.574941 0.809017 0.122208
v 0.791338 0.587785 0.168204
v 0.930274 0.309017 0.197736
v 0.978148 -0.000000 0.207912
v 0.930274 -0.309017 0.197736
v 0.791338 -0.587785 0.168204
v 0.574941 -0.809017 0.122208
v 0.302265 -0.951057 0.064248
v 0.250001 0.951056 0.181636
v 0.475529 0.809017 0.345492
v 0.654509 0.587785 0.475529
v 0.769421 0.309017 0.559017
v 0.809017 -0.000000 0.587786
v 0.769421 -0.309017 0.559017
v 0.654509 -0.587785 0.475529
v 0.475529 -0.809017 0.345492
v 0.250000 -0.951057 0.181636
v 0.154509 0.951056 0.267617
v 0.293893 0.809017 0.509037
v 0.404509 0.587785 0.700630
v 0.475528 0.309017 0.823640
v 0.500000 -0.000000 0.866026
v 0.475528 -0.309017 0.823640
v 0.404509 -0.587785 0.700630
v 0.293893 -0.809017 0.509037
v 0.154509 -0.951057 0.267617
v 0.032301 0.951056 0.307324
v 0.061440 0.809017 0.584566
v 0.084565 0.587785 0.804585
v 0.099412 0.309017 0.945847
v 0.104528 -0.000000 0.994522
v 0.099412 -0.309017 0.945847
v 0.084565 -0.587785 0.804585
v 0.061440 -0.809017 0.584566
v 0.032301 -0.951057 0.307324
v -0.095491 0.951056 0.293893
v -0.181636 0.809017 0.559017
v -0.250000 0.587785 0.769421
v -0.293893 0.309017 0.904509
v -0.309017 -0.000000 0.951056
v -0.293893 -0.309017 0.904509
v -0.250000 -0.587785 0.769421
v -0.181636 -0.809017 0.559017
v -0.095491 -0.951057 0.293893
v 0.000000 -1.000000 0.000000
v 0.000000 1.000000 0.000000
v -0.206773 0.951056 0.229645
v -0.393305 0.809017 0.436809
v -0.541338 0.587785 0.601217
v -0.636381 0.309017 0.706773
v -0.669131 -0.000000 0.743145
v -0.636381 -0.309017 0.706773
v -0.541338 -0.587785 0.601217
v -0.393305 -0.809017 0.436809
v -0.206773 -0.951057 0.229644
v -0.282301 0.951056 0.125689
v -0.536969 0.809017 0.239074
v -0.739074 0.587785 0.329057
v -0.868833 0.309017 0.386829
v -0.913545 -0.000000 0.406736
v -0.868833 -0.309017 0.386829
v -0.739074 -0.587785 0.329057
v -0.536969 -0.809017 0.239074
v -0.282301 -0.951057 0.125688
vt 0.000000 0.000000
vt 1.000000 0.000000
vt 0.000000 1.000000
vt 1.000000 1.000000
vn -0.699253 -0.699253 -0.148631
vn -0.699253 0.699253 -0.148631
vn -0.451891 -0.886887 -0.096052
vn -0.875444 0.446061 -0.186082
vn -0.966616 0.153097 -0.205461
vn -0.966616 -0.153097 -0.205461
vn -0.875444 -0.446061 -0.186082
vn -0.451891 0.886887 -0.096053
vn -0.373755 -0.886887 -0.271549
vn -0.724072 0.446061 -0.526069
vn -0.799480 0.153097 -0.580856
vn -0.799480 -0.153097 -0.580856
vn -0.724072 -0.446061 -0.526069
vn -0.373755 0.886887 -0.271549
vn -0.578346 -0.699253 -0.420193
vn -0.578345 0.699253 -0.420193
vn -0.230993 -0.886887 -0.400092
vn -0.447501 0.446061 -0.775095
vn -0.494105 0.153097 -0.855816
vn -0.494105 -0.153097 -0.855816
vn -0.447501 -0.446061 -0.775095
vn -0.230993 0.886887 -0.400093
vn -0.357437 -0.699253 -0.619100
vn -0.357437 0.699253 -0.619099
vn -0.048291 -0.886887 -0.459456
vn -0.093553 0.446061 -0.890100
vn -0.103296 0.153097 -0.982798
vn -0.103296 -0.153097 -0.982798
vn -0.093553 -0.446061 -0.890099
vn -0.048291 0.886887 -0.459456
vn -0.074725 -0.699253 -0.710959
vn -0.074725 0.699253 -0.710958
vn 0.142762 -0.886887 -0.439376
vn 0.276571 0.446061 -0.851198
vn 0.305374 0.153097 -0.939845
vn 0.305374 -0.153097 -0.939845
vn 0.276571 -0.446061 -0.851198
vn 0.142762 0.886887 -0.439376
vn 0.220909 -0.699253 -0.679886
vn 0.220909 0.699253 -0.679886
vn 0.309130 -0.886887 -0.343323
vn 0.598874 0.446061 -0.665116
vn 0.661243 0.153097 -0.734384
vn 0.661242 -0.153097 -0.734384
vn 0.598874 -0.446061 -0.665116
vn 0.309130 0.886887 -0.343323
vn 0.478345 -0.699253 -0.531255
vn 0.478345 0.699253 -0.531255
vn 0.817626 0.446061 -0.364030
vn 0.902776 0.153097 -0.401942
vn 0.902776 -0.153097 -0.401941
vn 0.817625 -0.446062 -0.364030
vn 0.422046 0.886887 -0.187907
vn 0.653071 -0.699252 -0.290766
vn 0.653070 0.699253 -0.290765
vn 0.422046 -0.886887 -0.187907
vn 0.895002 0.446061 0.000000
vn 0.988211 0.153097 0.000000
vn 0.988211 -0.153097 0.000000
vn 0.895002 -0.446062 0.000000
vn 0.461987 0.886887 0.000000
vn 0.714875 -0.699252 0.000000
vn 0.714875 0.699253 0.000000
vn 0.461987 -0.886887 0.000000
vn 0.902776 0.153097 0.401942
vn 0.902776 -0.153097 0.401942
vn 0.817625 -0.446062 0.364030
vn 0.422046 0.886887 0.187907
vn 0.653071 -0.699252 0.290766
vn 0.653070 0.699253 0.290766
vn 0.422046 -0.886887 0.187907
vn 0.817625 0.446061 0.364031
vn 0.661242 0.153097 0.734384
vn 0.661242 -0.153097 0.734384
vn 0.598873 -0.446061 0.665117
vn 0.309130 0.886887 0.343323
vn 0.478344 -0.699252 0.531256
vn 0.478344 0.699253 0.531255
vn 0.309129 -0.886887 0.343323
vn 0.598873 0.446061 0.665117
vn 0.305374 0.153097 0.939845
vn 0.305374 -0.153097 0.939845
vn 0.276571 -0.446062 0.851198
vn 0.142762 0.886887 0.439376
vn 0.220908 -0.699252 0.679886
vn 0.220908 0.699253 0.679886
vn 0.142762 -0.886887 0.439376
vn 0.276571 0.446061 0.851198
vn -0.103297 0.153097 0.982798
vn -0.103297 -0.153097 0.982798
vn -0.093554 -0.446062 0.890099
vn -0.048291 0.886887 0.459456
vn -0.074725 -0.699253 0.710958
vn -0.074725 0.699253 0.710958
vn -0.048291 -0.886887 0.459456
vn -0.093554 0.446061 0.890099
vn -0.494106 0.153097 0.855816
vn -0.494106 -0.153097 0.855816
vn -0.447502 -0.446061 0.775094
vn -0.230994 0.886887 0.400092
vn -0.357438 -0.699253 0.619099
vn -0.357438 0.699253 0.619099
vn -0.230994 -0.886887 0.400092
vn -0.447502 0.446061 0.775095
vn -0.799480 0.153097 0.580855
vn -0.799480 -0.153097 0.580856
vn -0.724072 -0.446061 0.526069
vn -0.373756 0.886887 0.271549
vn -0.578346 -0.699253 0.420193
vn -0.578346 0.699253 0.420192
vn -0.373755 -0.886887 0.271549
vn -0.724072 0.446061 0.526069
vn -0.156348 -0.987143 -0.033233
vn -0.156348 0.987143 -0.033233
vn -0.129314 -0.987143 -0.093952
vn -0.129314 0.987143 -0.093952
vn -0.079920 -0.987143 -0.138426
vn -0.079920 0.987143 -0.138426
vn -0.016708 -0.987143 -0.158965
vn -0.016708 0.987143 -0.158965
vn 0.049393 -0.987143 -0.152017
vn 0.049394 0.987143 -0.152018
vn 0.106954 -0.987143 -0.118785
vn 0.106954 0.987143 -0.118785
vn 0.146022 -0.987143 -0.065013
vn 0.146022 0.987143 -0.065013
vn 0.159841 -0.987143 0.000000
vn 0.159841 0.987143 0.000000
vn 0.146022 -0.987143 0.065013
vn 0.146022 0.987143 0.065013
vn 0.106954 -0.987143 0.118785
vn 0.106954 0.987143 0.118785
vn 0.049393 -0.987143 0.152017
vn 0.049394 0.987143 0.152018
vn -0.016708 -0.987143 0.158965
vn -0.016708 0.987143 0.158965
vn -0.079920 -0.987143 0.138426
vn -0.079921 0.987143 0.138426
vn -0.129314 0.987143 0.093952
vn -0.129314 -0.987143 0.093952
vn -0.966616 0.153097 0.205461
vn -0.966616 -0.153097 0.205461
vn -0.156348 0.987143 0.033233
vn -0.875444 -0.446062 0.186082
vn -0.451891 0.886887 0.096053
vn -0.699253 -0.699253 0.148631
vn -0.699253 0.699253 0.148631
vn -0.451891 -0.886887 0.096052
vn -0.875444 0.446061 0.186082
vn -0.156348 -0.987143 0.033233
vn -0.875445 0.446061 -0.186082
vn -0.875444 -0.446061 -0.186081
vn 0.661243 -0.153097 -0.734384
vn 0.598873 -0.446062 -0.665116
vn 0.817625 0.446061 -0.364030
vn 0.902776 0.153097 -0.401941
vn 0.902776 -0.153097 -0.401942
vn 0.817625 -0.446062 0.364031
vn 0.653070 -0.699252 0.290766
vn 0.598873 -0.446062 0.665116
vn 0.478344 -0.699253 0.531256
vn 0.276570 -0.446061 0.851198
vn 0.220908 -0.699253 0.679886
vn -0.093554 -0.446061 0.890099
vn -0.074725 -0.699253 0.710959
vn -0.447502 -0.446061 0.775095
vn -0.230994 0.886887 0.400093
vn -0.799480 0.153097 0.580856
vn -0.724073 0.446061 0.526069
vn -0.875444 -0.446061 0.186081
s off
f 8/1/1 7/2/1 17/3/1
f 3/1/2 2/2/2 12/3/2
f 9/1/3 8/2/3 18/3/3
f 4/1/4 3/2/4 13/3/4
f 5/1/5 4/2/5 14/3/5
f 6/1/6 5/2/6 15/3/6
f 7/1/7 6/2/7 16/3/7
f 2/1/8 1/2/8 11/3/8
f 18/1/9 17/2/9 27/3/9
f 13/1/10 12/2/10 22/3/10
f 14/1/11 13/2/11 23/3/11
f 15/1/12 14/2/12 24/3/12
f 16/1/13 15/2/13 25/3/13
f 11/1/14 10/2/14 20/3/14
f 17/1/15 16/2/15 26/3/15
f 12/1/16 11/2/16 21/3/16
f 27/1/17 26/2/17 36/3/17
f 22/1/18 21/2/18 31/3/18
f 23/1/19 22/2/19 32/3/19
f 24/1/20 23/2/20 33/3/20
f 25/1/21 24/2/21 34/3/21
f 20/1/22 19/2/22 29/3/22
f 26/1/23 25/2/23 35/3/23
f 21/1/24 20/2/24 30/3/24
f 36/1/25 35/2/25 45/3/25
f 31/1/26 30/2/26 40/3/26
f 32/1/27 31/2/27 41/3/27
f 33/1/28 32/2/28 42/3/28
f 34/1/29 33/2/29 43/3/29
f 29/1/30 28/2/30 38/3/30
f 35/1/31 34/2/31 44/3/31
f 30/1/32 29/2/32 39/3/32
f 45/1/33 44/2/33 54/3/33
f 40/1/34 39/2/34 49/3/34
f 41/1/35 40/2/35 50/3/35
f 42/1/36 41/2/36 51/3/36
f 43/1/37 42/2/37 52/3/37
f 38/1/38 37/2/38 47/3/38
f 44/1/39 43/2/39 53/3/39
f 39/1/40 38/2/40 48/3/40
f 54/1/41 53/2/41 63/3/41
f 49/1/42 48/2/42 58/3/42
f 50/1/43 49/2/43 59/3/43
f 51/1/44 50/2/44 60/3/44
f 52/1/45 51/2/45 61/3/45
f 47/1/46 46/2/46 56/3/46
f 53/1/47 52/2/47 62/3/47
f 48/1/48 47/2/48 57/3/48
f 58/1/49 57/2/49 67/3/49
f 59/1/50 58/2/50 68/3/50
f 60/1/51 59/2/51 69/3/51
f 61/1/52 60/2/52 70/3/52
f 56/1/53 55/2/53 65/3/53
f 62/1/54 61/2/54 71/3/54
f 57/1/55 56/2/55 66/3/55
f 63/1/56 62/2/56 72/3/56
f 67/1/57 66/2/57 76/3/57
f 68/1/58 67/2/58 77/3/58
f 69/1/59 68/2/59 78/3/59
f 70/1/60 69/2/60 79/3/60
f 65/1/61 64/2/61 74/3/61
f 71/1/62 70/2/62 80/3/62
f 66/1/63 65/2/63 75/3/63
f 72/1/64 71/2/64 81/3/64
f 77/1/65 76/2/65 86/3/65
f 78/1/66 77/2/66 87/3/66
f 79/1/67 78/2/67 88/3/67
f 74/1/68 73/2/68 83/3/68
f 80/1/69 79/2/69 89/3/69
f 75/1/70 74/2/70 84/3/70
f 81/1/71 80/2/71 90/3/71
f 76/1/72 75/2/72 85/3/72
f 86/1/73 85/2/73 95/3/73
f 87/1/74 86/2/74 96/3/74
f 88/1/75 87/2/75 97/3/75
f 83/1/76 82/2/76 92/3/76
f 89/1/77 88/2/77 98/3/77
f 84/1/78 83/2/78 93/3/78
f 90/1/79 89/2/79 99/3/79
f 85/1/80 84/2/80 94/3/80
f 95/1/81 94/2/81 104/3/81
f 96/1/82 95/2/82 105/3/82
f 97/1/83 96/2/83 106/3/83
f 92/1/84 91/2/84 101/3/84
f 98/1/85 97/2/85 107/3/85
f 93/1/86 92/2/86 102/3/86
f 99/1/87 98/2/87 108/3/87
f 94/1/88 93/2/88 103/3/88
f 104/1/89 103/2/89 113/3/89
f 105/1/90 104/2/90 114/3/90
f 106/1/91 105/2/91 115/3/91
f 101/1/92 100/2/92 110/3/92
f 107/1/93 106/2/93 116/3/93
f 102/1/94 101/2/94 111/3/94
f 108/1/95 107/2/95 117/3/95
f 103/1/96 102/2/96 112/3/96
f 113/1/97 112/2/97 124/3/97
f 114/1/98 113/2/98 125/3/98
f 115/1/99 114/2/99 126/3/99
f 110/1/100 109/2/100 121/3/100
f 116/1/101 115/2/101 127/3/101
f 111/1/102 110/2/102 122/3/102
f 117/1/103 116/2/103 128/3/103
f 112/1/104 111/2/104 123/3/104
f 124/1/105 123/2/105 133/3/105
f 125/1/106 124/2/106 134/3/106
f 126/1/107 125/2/107 135/3/107
f 121/1/108 120/2/108 130/3/108
f 127/1/109 126/2/109 136/3/109
f 122/1/110 121/2/110 131/3/110
f 128/1/111 127/2/111 137/3/111
f 123/1/112 122/2/112 132/3/112
f 118/1/113 9/2/113 18/4/113
f 1/1/114 119/2/114 10/4/114
f 118/1/115 18/2/115 27/4/115
f 10/1/116 119/2/116 19/4/116
f 118/1/117 27/2/117 36/4/117
f 19/1/118 119/2/118 28/4/118
f 118/1/119 36/2/119 45/4/119
f 28/1/120 119/2/120 37/4/120
f 118/1/121 45/2/121 54/4/121
f 37/1/122 119/2/122 46/4/122
f 118/1/123 54/2/123 63/4/123
f 46/1/124 119/2/124 55/4/124
f 118/1/125 63/2/125 72/4/125
f 55/1/126 119/2/126 64/4/126
f 118/1/127 72/2/127 81/4/127
f 64/1/128 119/2/128 73/4/128
f 118/1/129 81/2/129 90/4/129
f 73/1/130 119/2/130 82/4/130
f 118/1/131 90/2/131 99/4/131
f 82/1/132 119/2/132 91/4/132
f 118/1/133 99/2/133 108/4/133
f 91/1/134 119/2/134 100/4/134
f 118/1/135 108/2/135 117/4/135
f 100/1/136 119/2/136 109/4/136
f 118/1/137 117/2/137 128/4/137
f 109/1/138 119/2/138 120/4/138
f 120/1/139 119/2/139 129/4/139
f 118/1/140 128/2/140 137/4/140
f 133/1/141 132/2/141 5/3/141
f 134/1/142 133/2/142 6/3/142
f 129/1/143 119/2/143 1/4/143
f 135/1/144 134/2/144 7/3/144
f 130/1/145 129/2/145 2/3/145
f 136/1/146 135/2/146 8/3/146
f 131/1/147 130/2/147 3/3/147
f 137/1/148 136/2/148 9/3/148
f 132/1/149 131/2/149 4/3/149
f 118/1/150 137/2/150 9/4/150
f 7/2/1 16/4/1 17/3/1
f 2/2/2 11/4/2 12/3/2
f 8/2/3 17/4/3 18/3/3
f 3/2/151 12/4/151 13/3/151
f 4/2/5 13/4/5 14/3/5
f 5/2/6 14/4/6 15/3/6
f 6/2/152 15/4/152 16/3/152
f 1/2/8 10/4/8 11/3/8
f 17/2/9 26/4/9 27/3/9
f 12/2/10 21/4/10 22/3/10
f 13/2/11 22/4/11 23/3/11
f 14/2/12 23/4/12 24/3/12
f 15/2/13 24/4/13 25/3/13
f 10/2/14 19/4/14 20/3/14
f 16/2/15 25/4/15 26/3/15
f 11/2/16 20/4/16 21/3/16
f 26/2/17 35/4/17 36/3/17
f 21/2/18 30/4/18 31/3/18
f 22/2/19 31/4/19 32/3/19
f 23/2/20 32/4/20 33/3/20
f 24/2/21 33/4/21 34/3/21
f 19/2/22 28/4/22 29/3/22
f 25/2/23 34/4/23 35/3/23
f 20/2/24 29/4/24 30/3/24
f 35/2/25 44/4/25 45/3/25
f 30/2/26 39/4/26 40/3/26
f 31/2/27 40/4/27 41/3/27
f 32/2/28 41/4/28 42/3/28
f 33/2/29 42/4/29 43/3/29
f 28/2/30 37/4/30 38/3/30
f 34/2/31 43/4/31 44/3/31
f 29/2/32 38/4/32 39/3/32
f 44/2/33 53/4/33 54/3/33
f 39/2/34 48/4/34 49/3/34
f 40/2/35 49/4/35 50/3/35
f 41/2/36 50/4/36 51/3/36
f 42/2/37 51/4/37 52/3/37
f 37/2/38 46/4/38 47/3/38
f 43/2/39 52/4/39 53/3/39
f 38/2/40 47/4/40 48/3/40
f 53/2/41 62/4/41 63/3/41
f 48/2/42 57/4/42 58/3/42
f 49/2/43 58/4/43 59/3/43
f 50/2/153 59/4/153 60/3/153
f 51/2/154 60/4/154 61/3/154
f 46/2/46 55/4/46 56/3/46
f 52/2/47 61/4/47 62/3/47
f 47/2/48 56/4/48 57/3/48
f 57/2/155 66/4/155 67/3/155
f 58/2/156 67/4/156 68/3/156
f 59/2/157 68/4/157 69/3/157
f 60/2/52 69/4/52 70/3/52
f 55/2/53 64/4/53 65/3/53
f 61/2/54 70/4/54 71/3/54
f 56/2/55 65/4/55 66/3/55
f 62/2/56 71/4/56 72/3/56
f 66/2/57 75/4/57 76/3/57
f 67/2/58 76/4/58 77/3/58
f 68/2/59 77/4/59 78/3/59
f 69/2/60 78/4/60 79/3/60
f 64/2/61 73/4/61 74/3/61
f 70/2/62 79/4/62 80/3/62
f 65/2/63 74/4/63 75/3/63
f 71/2/64 80/4/64 81/3/64
f 76/2/65 85/4/65 86/3/65
f 77/2/66 86/4/66 87/3/66
f 78/2/158 87/4/158 88/3/158
f 73/2/68 82/4/68 83/3/68
f 79/2/159 88/4/159 89/3/159
f 74/2/70 83/4/70 84/3/70
f 80/2/71 89/4/71 90/3/71
f 75/2/72 84/4/72 85/3/72
f 85/2/73 94/4/73 95/3/73
f 86/2/74 95/4/74 96/3/74
f 87/2/160 96/4/160 97/3/160
f 82/2/76 91/4/76 92/3/76
f 88/2/161 97/4/161 98/3/161
f 83/2/78 92/4/78 93/3/78
f 89/2/79 98/4/79 99/3/79
f 84/2/80 93/4/80 94/3/80
f 94/2/81 103/4/81 104/3/81
f 95/2/82 104/4/82 105/3/82
f 96/2/162 105/4/162 106/3/162
f 91/2/84 100/4/84 101/3/84
f 97/2/163 106/4/163 107/3/163
f 92/2/86 101/4/86 102/3/86
f 98/2/87 107/4/87 108/3/87
f 93/2/88 102/4/88 103/3/88
f 103/2/89 112/4/89 113/3/89
f 104/2/90 113/4/90 114/3/90
f 105/2/164 114/4/164 115/3/164
f 100/2/92 109/4/92 110/3/92
f 106/2/165 115/4/165 116/3/165
f 101/2/94 110/4/94 111/3/94
f 107/2/95 116/4/95 117/3/95
f 102/2/96 111/4/96 112/3/96
f 112/2/97 123/4/97 124/3/97
f 113/2/98 124/4/98 125/3/98
f 114/2/166 125/4/166 126/3/166
f 109/2/167 120/4/167 121/3/167
f 115/2/101 126/4/101 127/3/101
f 110/2/102 121/4/102 122/3/102
f 116/2/103 127/4/103 128/3/103
f 111/2/104 122/4/104 123/3/104
f 123/2/168 132/4/168 133/3/168
f 124/2/106 133/4/106 134/3/106
f 125/2/107 134/4/107 135/3/107
f 120/2/108 129/4/108 130/3/108
f 126/2/109 135/4/109 136/3/109
f 121/2/110 130/4/110 131/3/110
f 127/2/111 136/4/111 137/3/111
f 122/2/169 131/4/169 132/3/169
f 132/2/141 4/4/141 5/3/141
f 133/2/142 5/4/142 6/3/142
f 134/2/170 6/4/170 7/3/170
f 129/2/145 1/4/145 2/3/145
f 135/2/146 7/4/146 8/3/146
f 130/2/147 2/4/147 3/3/147
f 136/2/148 8/4/148 9/3/148
f 131/2/149 3/4/149 4/3/149
