# Blender v2.68 (sub 0) OBJ File: 'table_1.blend'
# www.blender.org
v 1.367400 0.034080 2.898000
v 1.367400 0.034080 2.598000
v 1.667400 0.034080 2.598000
v 1.667400 0.034080 2.898000
v 1.367400 2.034080 2.898000
v 1.367400 2.034080 2.598000
v 1.667400 2.034080 2.598000
v 1.667400 2.034080 2.898000
v -1.670450 -0.006673 2.898885
v -1.670450 -0.006673 2.598885
v -1.370450 -0.006673 2.598885
v -1.370450 -0.006673 2.898885
v -1.670450 1.993327 2.898885
v -1.670450 1.993327 2.598885
v -1.370450 1.993327 2.598885
v -1.370450 1.993327 2.898885
v -1.670450 -0.036000 -2.600000
v -1.670450 -0.036000 -2.900000
v -1.370450 -0.036000 -2.900000
v -1.370450 -0.036000 -2.600000
v -1.670450 1.964000 -2.600000
v -1.670450 1.964000 -2.900000
v -1.370450 1.964000 -2.900000
v -1.370450 1.964000 -2.600000
v -1.521249 1.742242 2.770794
v -1.521249 1.742242 -2.753660
v 1.514018 1.742242 -2.753660
v 1.514018 1.742242 2.770794
v -1.521249 1.961247 2.770794
v -1.521249 1.961247 -2.753660
v 1.514018 1.961247 -2.753660
v 1.514018 1.961247 2.770794
v 1.367488 -0.035732 -2.600000
v 1.367488 -0.035732 -2.900000
v 1.667488 -0.035732 -2.900000
v 1.667488 -0.035732 -2.600000
v 1.367488 1.964268 -2.600000
v 1.367488 1.964268 -2.900000
v 1.667488 1.964268 -2.900000
v 1.667488 1.964268 -2.600000
v -1.669422 1.961653 2.899382
v -1.669422 1.961654 -2.899383
v 1.669422 1.961654 -2.899383
v 1.669422 1.961654 2.899382
v -1.669422 2.180659 2.899382
v -1.669422 2.180659 -2.899383
v 1.669422 2.180659 -2.899383
v 1.669422 2.180659 2.899382
vt 1.000000 0.374396
vt 0.813089 0.374969
vt 0.999427 0.187485
vt 0.250062 0.749366
vt 0.250636 0.562455
vt 0.436973 0.749939
vt 0.999427 0.937423
vt 0.812516 0.936850
vt 1.000000 0.750512
vt 0.062578 0.375543
vt 0.249489 0.374970
vt 0.063151 0.562454
vt 0.063151 0.374970
vt 0.062578 0.188058
vt 0.250062 0.374395
vt 0.438120 0.937424
vt 0.437547 0.750512
vt 0.625031 0.936850
vt 0.437547 0.188059
vt 0.436973 0.374970
vt 0.250636 0.187485
vt 0.250062 0.000573
vt 0.437547 0.186911
vt 1.000000 0.561881
vt 0.813089 0.562454
vt 0.999427 0.374970
vt 0.250062 0.375543
vt 0.437547 0.561881
vt 0.063151 0.187485
vt 0.062578 0.000573
vt 0.250062 0.186911
vt 0.063151 0.937424
vt 0.062578 0.750513
vt 0.250062 0.936850
vt 0.438120 0.749939
vt 0.437547 0.563028
vt 0.625031 0.749366
vt 0.625605 0.187485
vt 0.625032 0.000573
vt 0.812516 0.186911
vt 0.625031 0.561881
vt 0.438120 0.562454
vt 0.624458 0.374970
vt 0.437547 0.188058
vt 0.624458 0.187485
vt 0.438120 0.374969
vt 0.250636 0.937424
vt 0.250062 0.750513
vt 0.437547 0.936850
vt 0.813089 0.749939
vt 0.812516 0.563028
vt 1.000000 0.749365
vt 0.042110 3.442002
vt 0.031551 0.000063
vt 0.062578 3.441939
vt 0.000000 0.000000
vt 1.000000 0.000000
vt 0.000000 1.000000
vt 0.812516 0.749366
vt 0.625605 0.749939
vt 0.811942 0.562454
vt 0.812516 0.375543
vt 0.625605 0.374969
vt 0.625031 0.188058
vt 0.812516 0.374396
vt 0.063151 0.749939
vt 0.062578 0.563028
vt 0.625605 0.937423
vt 0.811942 0.749939
vt 0.011084 3.612908
vt 0.000000 0.000063
vt 0.031551 3.612845
vt 0.812516 0.188058
vt 0.250062 0.561881
vt 0.249489 0.187485
vt 0.624458 0.749939
vt 0.250062 0.374397
vt 0.436973 0.000000
vt 0.249489 0.000000
vt 0.249488 0.749939
vt 0.624458 0.562454
vt 0.811943 0.000000
vt 0.437547 0.375543
vt 0.625031 0.374396
vt 0.999427 0.562454
vt 0.052018 0.000000
vt 1.000000 1.000000
vt 0.625031 0.563028
vt 0.438120 0.000000
vt 0.625605 0.374970
vt 0.811942 0.187485
vt 0.249489 0.562454
vt 0.625031 0.750512
vt 0.020467 0.000000
vn -1.000000 0.000000 0.000000
vn 0.000000 0.000000 -1.000000
vn 1.000000 -0.000000 0.000000
vn 0.000000 -0.000000 1.000000
vn -0.000000 -1.000000 0.000000
vn -0.000000 1.000000 0.000000
s off
f 5/1/1 6/2/1 1/3/1
f 6/4/2 7/5/2 2/6/2
f 7/7/3 8/8/3 3/9/3
f 8/10/4 5/11/4 4/12/4
f 1/13/5 2/14/5 4/15/5
f 8/16/6 7/17/6 5/18/6
f 13/19/1 14/20/1 9/21/1
f 14/21/2 15/22/2 10/23/2
f 15/24/3 16/25/3 11/26/3
f 16/5/4 13/27/4 12/28/4
f 9/29/5 10/30/5 12/31/5
f 16/32/6 15/33/6 13/34/6
f 21/35/1 22/36/1 17/37/1
f 22/38/2 23/39/2 18/40/2
f 23/41/3 24/42/3 19/43/3
f 24/44/4 21/45/4 20/46/4
f 17/47/5 18/48/5 20/49/5
f 24/50/6 23/51/6 21/52/6
f 29/53/1 30/54/1 25/55/1
f 30/56/2 31/57/2 26/58/2
f 31/56/3 32/57/3 27/58/3
f 32/56/4 29/57/4 28/58/4
f 25/56/5 26/57/5 28/58/5
f 32/56/6 31/57/6 29/58/6
f 37/59/1 38/60/1 33/61/1
f 38/45/2 39/23/2 34/39/2
f 39/61/3 40/41/3 35/62/3
f 40/63/4 37/64/4 36/65/4
f 33/66/5 34/67/5 36/4/5
f 40/8/6 39/68/6 37/69/6
f 45/70/1 46/71/1 41/72/1
f 46/56/2 47/57/2 42/58/2
f 47/56/3 48/57/3 43/58/3
f 48/56/4 45/57/4 44/58/4
f 41/56/5 42/57/5 44/58/5
f 48/56/6 47/57/6 45/58/6
f 6/2/1 2/73/1 1/3/1
f 7/5/2 3/36/2 2/6/2
f 8/8/3 4/50/3 3/9/3
f 5/11/4 1/74/4 4/12/4
f 2/14/5 3/75/5 4/15/5
f 7/17/6 6/76/6 5/18/6
f 14/20/1 10/77/1 9/21/1
f 15/22/2 11/78/2 10/23/2
f 16/25/3 12/62/3 11/26/3
f 13/27/4 9/20/4 12/28/4
f 10/30/5 11/79/5 12/31/5
f 15/33/6 14/80/6 13/34/6
f 22/36/1 18/81/1 17/37/1
f 23/39/2 19/82/2 18/40/2
f 24/42/3 20/83/3 19/43/3
f 21/45/4 17/84/4 20/46/4
f 18/48/5 19/6/5 20/49/5
f 23/51/6 22/85/6 21/52/6
f 30/54/1 26/86/1 25/55/1
f 31/57/2 27/87/2 26/58/2
f 32/57/3 28/87/3 27/58/3
f 29/57/4 25/87/4 28/58/4
f 26/57/5 27/87/5 28/58/5
f 31/57/6 30/87/6 29/58/6
f 38/60/1 34/88/1 33/61/1
f 39/23/2 35/89/2 34/39/2
f 40/41/3 36/90/3 35/62/3
f 37/64/4 33/91/4 36/65/4
f 34/67/5 35/92/5 36/4/5
f 39/68/6 38/93/6 37/69/6
f 46/71/1 42/94/1 41/72/1
f 47/57/2 43/87/2 42/58/2
f 48/57/3 44/87/3 43/58/3
f 45/57/4 41/87/4 44/58/4
f 42/57/5 43/87/5 44/58/5
f 47/57/6 46/87/6 45/58/6
