# Blender v2.68 (sub 0) OBJ File: 'torch_2.blend'
# www.blender.org
v -0.074325 0.156954 0.672710
v -0.074325 0.356954 0.672710
v 0.075675 0.156954 0.672710
v 0.075675 0.356954 0.672710
v 0.150675 0.156954 0.802614
v 0.150675 0.356954 0.802614
v 0.075675 0.156954 0.932518
v 0.075675 0.356954 0.932518
v -0.074325 0.156954 0.932518
v -0.074325 0.356954 0.932518
v -0.149325 0.156954 0.802614
v -0.149325 0.356954 0.802614
v -0.112963 1.527561 1.241482
v 0.112963 1.527561 1.241482
v 0.225925 1.564485 1.049340
v 0.112963 1.601408 0.857199
v -0.000000 -0.726762 0.588854
v -0.112963 1.601408 0.857199
v -0.225925 1.564485 1.049340
v -0.053547 0.279422 -0.017764
v -0.053547 0.279422 0.684775
v 0.053547 0.279422 0.684775
v 0.053547 0.279422 -0.017764
v -0.053547 0.220578 -0.017764
v -0.053547 0.220578 0.684775
v 0.053547 0.220578 0.684775
v 0.053547 0.220578 -0.017764
v 0.500000 -1.000000 -0.100000
v 0.500000 -1.000000 0.100000
v -0.500000 -1.000000 0.100000
v -0.500000 -1.000000 -0.100000
v 0.500000 1.000000 -0.100000
v 0.500000 1.000000 0.100000
v -0.500000 1.000000 0.100000
v -0.500000 1.000000 -0.100000
vt 0.000000 0.000000
vt 1.000000 0.000000
vt 0.004768 0.499321
vt 0.000000 0.494553
vt 0.000000 0.499321
vt -0.004768 0.494553
vt 0.490463 0.465942
vt 0.923476 0.330383
vt 0.923476 0.168938
vt 0.928244 0.339920
vt 0.071756 0.335152
vt 0.004768 0.514984
vt 1.004768 0.514984
vt 1.000000 1.000000
vt 0.009537 0.510216
vt 0.014305 0.524521
vt 0.019073 0.505447
vt 0.009537 0.514984
vt 0.500000 1.000000
vt 0.933013 0.873978
vt 0.933013 0.679153
vt 0.004768 0.508858
vt 0.000000 1.000000
vt 0.004768 0.504089
vt 0.000000 0.508858
vt 0.000000 0.504089
vt 1.000000 0.499321
vt 0.000000 0.489784
vt 0.004768 0.489784
vt 0.004768 0.485016
vt 1.004768 0.499321
vt 1.000000 0.494553
vt 0.995232 0.494553
vt 0.076524 0.344688
vt 0.076524 0.116486
vt 0.500000 0.000000
vt 0.928244 0.164169
vt 0.081292 0.121254
vt 0.066987 0.869209
vt 0.076524 0.683922
vt 0.490463 0.524521
vt 1.004768 0.508858
vt 1.004768 0.504089
vt 1.000000 0.508858
vt 1.000000 0.504089
vt 0.995232 0.499321
vn -0.000000 -0.000000 -1.000000
vn 0.866025 0.000000 -0.500000
vn 0.866025 0.000000 0.500000
vn 0.000000 0.000000 1.000000
vn -0.000000 1.000000 0.000000
vn -0.866026 -0.000000 -0.500000
vn -0.866025 0.000000 0.500000
vn -0.000000 -1.000000 -0.000000
vn -0.863303 0.016253 -0.504425
vn -0.000001 -0.278082 0.960557
vn -0.862695 -0.180044 0.472591
vn 0.862694 -0.180045 0.472592
vn 0.000001 0.114502 -0.993423
vn 0.863303 0.016253 -0.504424
vn -0.000000 0.982032 0.188714
vn -1.000000 -0.000000 -0.000000
vn 1.000000 0.000000 -0.000000
vn -1.000000 -0.000000 -0.000001
vn 0.000000 0.982032 0.188715
vn 0.000000 0.982032 0.188716
vn 1.000000 0.000000 0.000003
s off
f 1/1/1 2/2/1 3/3/1
f 3/1/2 4/2/2 5/4/2
f 5/1/3 6/2/3 7/5/3
f 7/1/4 8/2/4 9/6/4
f 4/7/5 2/8/5 12/9/5
f 11/1/6 12/2/6 1/4/6
f 9/1/7 10/2/7 11/3/7
f 1/7/8 3/10/8 11/11/8
f 18/12/9 17/13/9 19/14/9
f 13/15/10 17/13/10 14/14/10
f 19/16/11 17/13/11 13/14/11
f 14/17/12 17/13/12 15/14/12
f 16/12/13 17/13/13 18/14/13
f 15/18/14 17/13/14 16/14/14
f 13/19/15 14/20/15 15/21/15
f 24/1/16 25/2/16 20/22/16
f 25/1/4 26/2/4 21/23/4
f 26/1/17 27/2/17 22/24/17
f 27/1/1 24/2/1 23/23/1
f 20/1/5 21/2/5 23/25/5
f 27/1/8 26/2/8 24/26/8
f 28/1/8 29/2/8 31/6/8
f 32/1/5 35/2/5 34/27/5
f 28/1/17 32/2/17 29/28/17
f 29/1/4 33/2/4 30/29/4
f 30/1/18 34/2/18 31/6/18
f 32/1/1 28/2/1 35/30/1
f 2/2/1 4/31/1 3/3/1
f 4/2/2 6/32/2 5/4/2
f 6/2/3 8/27/3 7/5/3
f 8/2/4 10/33/4 9/6/4
f 6/34/5 4/7/5 8/35/5
f 4/7/5 12/9/5 10/36/5
f 8/35/5 4/7/5 10/36/5
f 12/2/6 2/32/6 1/4/6
f 10/2/7 12/31/7 11/3/7
f 3/10/8 5/37/8 11/11/8
f 5/37/8 7/36/8 11/11/8
f 7/36/8 9/38/8 11/11/8
f 19/39/19 13/19/19 15/21/19
f 18/40/19 19/39/19 16/41/19
f 19/39/20 15/21/20 16/41/20
f 25/2/16 21/42/16 20/22/16
f 26/2/4 22/14/4 21/23/4
f 27/2/17 23/43/17 22/24/17
f 24/2/1 20/14/1 23/23/1
f 21/2/5 22/44/5 23/25/5
f 26/2/8 25/45/8 24/26/8
f 29/2/8 30/33/8 31/6/8
f 33/28/5 32/1/5 34/27/5
f 32/2/21 33/46/21 29/28/21
f 33/2/4 34/27/4 30/29/4
f 34/2/18 35/46/18 31/6/18
f 28/2/1 31/33/1 35/30/1
